<?xml version="1.0" standalone="no"?>
<!DOCTYPE svg PUBLIC "-//W3C//DTD SVG 20010904//EN"
 "http://www.w3.org/TR/2001/REC-SVG-20010904/DTD/svg10.dtd">
<svg version="1.0" xmlns="http://www.w3.org/2000/svg"
 width="1224.000000pt" height="1224.000000pt" viewBox="0 0 1224.000000 1224.000000"
 preserveAspectRatio="xMidYMid meet">
<metadata>
Created by potrace 1.14, written by Peter Selinger 2001-2017
</metadata>
<g transform="translate(0.000000,1224.000000) scale(0.100000,-0.100000)"
fill="#000000" stroke="none">
<path d="M1530 12025 l0 -215 -242 -161 c-134 -89 -247 -165 -251 -169 -5 -4
104 -84 242 -176 l251 -169 0 -212 0 -213 -215 0 -215 0 -161 243 c-89 133
-165 246 -169 250 -4 5 -84 -104 -176 -242 l-169 -251 -212 0 -213 0 0 -765 0
-765 765 0 765 0 0 -215 0 -215 -242 -161 c-134 -89 -247 -165 -252 -169 -4
-5 84 -70 198 -146 113 -75 205 -138 204 -140 -2 -1 -111 19 -243 46 -132 27
-241 47 -243 45 -2 -2 22 -128 52 -282 31 -153 56 -281 56 -285 0 -5 -238 -8
-530 -8 l-530 0 0 -765 0 -765 530 0 c504 0 530 -1 530 -18 0 -10 -19 -115
-43 -233 -46 -230 -51 -319 -18 -319 10 0 107 18 216 40 110 22 203 39 208 37
5 -1 -52 -43 -127 -92 l-136 -90 -1 -45 c-2 -44 -2 -44 -6 -7 -2 20 -6 37 -9
37 -12 0 -113 -73 -109 -79 2 -4 94 -67 205 -141 110 -73 199 -134 198 -136
-2 -1 -87 15 -190 35 -104 21 -188 38 -188 37 0 -1 9 -19 20 -41 11 -22 20
-59 20 -85 0 -27 10 -64 25 -95 17 -34 24 -67 25 -104 0 -49 1 -53 14 -36 11
16 16 17 29 6 13 -10 16 -8 20 16 l4 28 2 -31 c0 -20 11 -40 31 -57 41 -37 40
-59 -2 -54 -43 6 -81 21 -97 41 -7 9 -19 16 -27 16 -7 0 -19 6 -26 13 -7 7
-21 16 -31 20 -9 3 -17 16 -17 27 0 11 -7 20 -15 20 -19 0 -19 -9 5 -125 11
-53 20 -101 20 -106 0 -5 -227 -9 -530 -9 l-530 0 0 -765 0 -765 534 0 533 0
-58 -288 c-31 -158 -56 -288 -54 -290 2 -2 107 17 235 43 128 26 234 45 236
42 2 -2 -86 -64 -196 -137 -110 -73 -198 -135 -196 -139 2 -3 115 -80 250
-171 l246 -165 0 -212 0 -213 -210 0 c-115 0 -210 2 -210 5 0 3 27 46 60 95
33 49 60 92 60 95 0 3 -20 5 -44 5 -39 0 -44 -2 -39 -20 4 -14 0 -20 -12 -20
-9 0 -19 9 -22 20 -5 20 -14 20 -410 20 -321 0 -403 -3 -397 -12 4 -7 34 -52
66 -100 l59 -88 -216 0 -215 0 0 -765 0 -765 765 0 765 0 2 210 3 210 98 -65
97 -65 0 470 c0 374 -3 470 -12 464 -7 -4 -52 -34 -100 -66 l-88 -59 0 216 0
215 215 0 215 0 120 -180 120 -180 45 0 c25 0 45 -4 45 -10 0 -5 -16 -10 -35
-10 -19 0 -35 -2 -35 -5 0 -7 72 -115 76 -115 7 0 61 87 66 108 5 18 2 22 -15
22 -12 0 -28 4 -35 9 -11 7 -10 10 3 15 28 11 75 7 75 -6 0 -7 41 49 92 125
50 75 92 136 94 135 1 -2 -15 -88 -36 -193 -25 -123 -35 -192 -28 -196 6 -4 9
-26 7 -51 l-4 -44 55 11 c54 11 55 11 61 50 4 26 7 31 8 15 3 -50 5 -50 210
-9 107 21 198 39 203 39 4 0 8 -238 8 -530 l0 -530 765 0 765 0 0 530 c0 513
1 530 19 530 10 0 63 -9 116 -20 53 -11 100 -20 104 -20 3 0 8 29 9 65 3 54 1
65 -12 65 -9 0 -16 6 -16 14 0 7 -7 19 -15 26 -19 16 -19 46 0 54 8 3 15 13
15 23 -1 25 -45 73 -68 73 -10 0 -25 11 -32 25 -7 14 -21 25 -31 25 -10 0 -21
5 -25 11 -4 7 -17 0 -35 -17 l-29 -28 0 82 c0 93 10 84 -102 84 -32 0 -60 4
-63 9 -4 5 -37 9 -75 9 -73 0 -169 16 -185 31 -5 5 3 10 20 10 17 1 -4 5 -45
10 -41 5 -88 13 -105 18 -16 6 -72 13 -122 17 -72 5 -93 4 -93 -6 0 -7 -11 -1
-25 14 -23 25 -65 36 -65 17 0 -5 -19 -11 -41 -15 -35 -6 -46 -3 -66 16 -22
20 -33 23 -99 20 -74 -2 -74 -2 -74 24 0 23 3 25 23 19 42 -13 522 -18 640 -6
93 10 115 15 130 32 18 23 23 84 7 94 -5 3 -10 19 -10 34 0 16 -9 40 -20 54
-35 45 -28 68 53 170 25 32 32 58 64 251 34 205 37 216 58 216 34 0 73 37 81
74 7 41 -16 92 -48 102 -89 28 -164 -47 -124 -125 16 -30 16 -30 -72 -167
l-87 -137 -3 174 -3 174 25 20 c63 51 50 144 -23 166 -96 29 -159 -84 -87
-156 l23 -23 -71 -173 -70 -173 -40 197 -39 197 25 24 c57 52 40 135 -30 157
-52 15 -96 -6 -112 -56 -14 -42 -6 -70 28 -101 l25 -24 -38 -190 c-21 -105
-40 -188 -43 -185 -3 2 -35 82 -72 176 l-68 172 24 21 c14 12 27 37 30 57 5
28 1 41 -21 67 -50 60 -141 37 -160 -40 -8 -31 7 -65 41 -94 l24 -20 -2 -184
-3 -183 -87 136 -87 137 15 35 c40 96 -71 172 -146 100 -41 -39 -41 -86 -1
-126 16 -16 40 -29 53 -29 22 0 24 -7 59 -215 33 -194 39 -218 65 -251 84
-106 90 -125 49 -178 -14 -18 -25 -39 -25 -47 0 -8 -7 -23 -15 -33 -22 -28
-19 -50 12 -86 l26 -32 -94 -94 -94 -94 -87 0 -88 0 -1 688 c-1 664 -4 820
-15 831 -6 6 -510 11 -1131 11 l-383 0 -2 763 -3 762 -85 5 c-50 3 -80 8 -72
13 19 12 4 27 -27 27 -15 0 -36 6 -46 14 -16 12 -17 17 -6 44 17 40 53 47 81
17 38 -40 64 -37 112 12 l43 44 5 -83 5 -83 680 -2 680 -2 -32 27 c-18 15 -40
28 -50 28 -10 1 -34 5 -53 9 -19 4 -52 8 -72 10 -21 1 -45 8 -54 16 -13 11
-18 11 -21 2 -7 -19 -16 -16 -49 12 -16 14 -32 25 -36 25 -13 0 -9 -18 5 -24
6 -3 1 -3 -13 1 -14 3 -37 7 -51 8 -14 1 -30 5 -36 8 -14 9 -23 -15 -23 -60
l0 -35 -47 6 c-27 3 -78 7 -114 8 l-67 3 -7 50 c-4 28 -8 59 -9 69 -1 11 -8
22 -14 24 -17 5 -15 22 3 22 13 0 15 21 15 127 l0 127 -52 -49 c-29 -28 -126
-122 -215 -209 -89 -88 -168 -163 -176 -168 -14 -7 -45 -9 -108 -7 -27 1 -56
34 -39 44 5 3 6 28 3 55 -4 34 -2 50 6 50 6 0 11 13 11 28 0 19 12 40 38 65
42 41 53 44 72 22 21 -26 30 -17 30 31 0 45 2 48 126 177 l126 132 -43 7 c-24
3 -81 7 -126 7 l-83 1 0 115 0 115 83 1 c45 0 101 4 124 7 l41 7 -124 130
c-119 124 -124 132 -124 173 0 46 -5 49 -36 28 -19 -14 -24 -12 -57 22 -37 38
-62 86 -58 111 2 8 -3 25 -10 38 -11 20 -11 26 -1 32 7 4 12 14 10 21 -2 8 9
17 27 21 17 4 26 8 20 9 -5 2 13 6 40 9 39 5 56 2 77 -13 22 -15 45 -18 138
-18 61 0 113 2 116 4 2 3 30 3 62 1 62 -5 112 9 112 29 0 10 29 13 114 15 102
1 115 -1 119 -17 4 -15 15 -17 88 -15 46 2 142 4 213 5 119 3 130 4 155 27
l26 23 -345 -1 c-190 -1 -497 -1 -682 0 l-338 1 0 87 0 88 122 122 c97 97 118
123 100 123 l-22 0 0 305 c0 168 3 305 8 305 4 0 23 -97 43 -215 33 -194 39
-218 65 -251 84 -106 90 -125 49 -178 -14 -18 -25 -38 -25 -44 0 -6 -8 -24
-17 -40 -20 -35 -9 -71 29 -96 39 -25 277 -40 513 -32 240 7 303 16 322 42 15
21 17 80 3 89 -5 3 -10 19 -10 34 0 16 -9 40 -20 54 -35 45 -28 68 53 170 25
32 32 58 64 251 36 212 37 216 60 216 33 0 83 51 83 85 0 37 -26 82 -52 91
-89 28 -164 -47 -124 -125 16 -30 16 -30 -72 -167 l-87 -137 -3 174 -3 174 25
20 c63 51 50 144 -23 166 -96 29 -159 -84 -87 -156 l23 -23 -71 -173 -70 -173
-40 197 -39 197 25 24 c57 52 40 135 -30 157 -52 15 -96 -6 -112 -56 -14 -42
-6 -70 28 -101 l25 -24 -38 -190 c-21 -105 -40 -188 -43 -185 -3 2 -35 82 -72
176 l-68 172 24 21 c14 12 27 37 30 57 5 28 1 41 -21 67 -50 60 -141 37 -160
-40 -8 -31 7 -65 41 -94 l24 -20 -2 -184 -3 -183 -87 136 -87 137 15 35 c17
41 11 76 -19 103 -28 24 -63 33 -92 22 -19 -7 -32 2 -98 68 l-76 77 -3 85 -3
85 -79 3 -80 3 80 80 79 80 5 -78 5 -78 679 -3 678 -2 66 65 c36 35 68 62 71
59 3 -3 -1 -9 -8 -13 -9 -6 -10 -11 -3 -15 6 -4 9 -12 7 -19 -17 -57 -16 -67
10 -67 l25 0 -2 758 -3 757 -762 3 -763 2 0 765 0 765 765 0 765 0 1 -747 c1
-412 2 -755 3 -763 1 -13 85 -15 680 -18 622 -2 681 -1 698 14 10 10 18 23 18
30 0 18 -21 29 -29 15 -5 -8 -15 -9 -32 -3 -13 5 -41 8 -62 7 -27 -3 -37 0
-34 9 3 8 -8 12 -34 13 -22 1 -45 6 -52 10 -6 4 -25 9 -42 10 -62 5 -75 8 -75
15 0 4 -9 17 -20 28 -16 16 -20 17 -20 5 0 -8 4 -15 10 -15 5 0 7 -7 3 -16 -5
-13 -10 -11 -28 10 -17 20 -31 26 -61 25 -26 0 -33 -3 -21 -7 16 -7 16 -9 -3
-25 -13 -11 -20 -29 -20 -51 l0 -34 -109 -1 c-80 -1 -112 2 -117 11 -5 7 -7
104 -6 216 1 111 -1 202 -4 202 -4 0 -101 -93 -215 -207 -115 -114 -218 -211
-231 -216 -32 -13 -78 -15 -107 -5 -17 6 -22 14 -18 29 4 14 2 19 -8 15 -7 -2
-16 2 -19 10 -3 8 -1 14 5 14 7 0 9 13 7 32 -9 61 23 105 222 303 104 104 190
193 190 197 0 5 -66 9 -147 9 -82 1 -139 4 -129 6 15 4 16 7 5 13 -7 5 -21 4
-32 -2 -10 -5 -21 -7 -25 -4 -3 3 -1 6 5 6 6 0 9 17 7 40 -2 22 0 40 4 40 4 0
8 20 8 45 0 51 10 67 29 42 12 -17 13 -16 18 2 3 13 -2 22 -17 27 -12 5 79 11
214 14 l235 5 0 38 c-3 169 -6 227 -14 227 -6 0 -22 11 -37 25 -15 14 -33 25
-40 25 -7 0 -25 5 -39 10 l-27 10 24 19 c12 11 19 23 15 28 -5 4 -13 0 -18 -9
-9 -16 -12 -16 -44 -1 -19 9 -35 22 -35 29 0 15 -44 27 -48 14 -4 -12 -22 -3
-22 11 0 5 145 9 370 9 363 0 370 0 370 -20 0 -11 4 -20 8 -20 5 0 17 9 27 20
13 14 31 20 62 20 48 0 49 1 28 33 -14 22 -12 26 43 80 44 43 66 58 95 61 22
3 37 1 37 -5 0 -6 8 -8 18 -5 36 12 55 -17 61 -90 6 -68 6 -69 -30 -114 -43
-53 -46 -63 -55 -153 -3 -38 -10 -83 -15 -100 -6 -20 -5 -35 2 -44 9 -10 7
-13 -10 -13 -26 0 -27 -8 -3 -26 15 -12 15 -12 -5 -7 -28 7 -31 -13 -3 -22 11
-3 20 -10 20 -15 0 -5 20 -12 44 -15 l43 -7 6 -69 c3 -38 3 -84 0 -104 -4 -23
-2 -35 6 -35 25 0 9 -20 -16 -21 -46 -1 -58 -11 -59 -51 -1 -21 3 -38 9 -38 5
0 4 -6 -3 -14 -12 -16 -11 -57 3 -67 4 -3 2 -18 -5 -34 -11 -24 -10 -29 5 -40
10 -7 14 -15 10 -18 -11 -7 -8 -84 5 -117 6 -15 6 -34 0 -49 -6 -17 -4 -28 6
-40 10 -11 14 -30 12 -49 -5 -36 0 -39 32 -16 25 17 27 14 22 -63 -2 -48 15
-59 23 -15 3 15 4 356 4 757 l-2 730 -75 5 c-57 4 -75 8 -75 20 0 9 -14 17
-38 21 -28 4 -49 17 -71 43 -28 30 -39 36 -74 36 -41 0 -42 1 -42 35 0 31 -3
35 -25 35 -23 0 -24 2 -15 20 6 11 15 20 21 20 6 0 13 -9 16 -20 4 -16 14 -20
48 -20 34 0 44 -4 48 -20 3 -11 14 -20 25 -20 11 0 25 -7 32 -15 7 -8 19 -15
26 -15 8 0 14 -6 14 -13 0 -7 21 -18 48 -24 l47 -11 48 46 47 46 1 -49 c1 -28
2 -63 3 -80 l1 -30 674 -3 c443 -1 678 1 685 8 7 7 6 10 -3 10 -7 0 -32 16
-55 35 -24 19 -50 35 -60 35 -9 0 -15 6 -13 12 1 9 -10 13 -33 13 -35 0 -38 5
-29 45 3 11 -4 14 -28 12 -42 -3 -43 16 -1 20 20 2 38 13 51 30 20 26 20 28 2
90 -9 35 -23 70 -31 79 -26 29 -27 72 -2 102 l23 27 153 -160 c85 -88 149
-160 143 -160 -7 0 -6 -11 1 -32 8 -24 8 -47 -1 -91 -7 -32 -11 -60 -9 -62 2
-2 14 -5 28 -7 25 -3 25 -2 28 81 l3 84 73 -72 c41 -39 82 -71 92 -72 11 0 43
0 72 1 31 1 52 -3 52 -9 0 -7 -24 -11 -60 -11 -35 0 -60 -4 -60 -10 0 -7 -29
-9 -79 -7 l-78 3 -7 -150 c-6 -158 -8 -1206 -1 -1206 11 0 65 87 65 106 0 12
7 27 15 34 8 7 15 25 15 39 0 15 7 36 15 47 16 21 20 54 6 54 -5 0 -11 -5 -13
-12 -3 -9 -6 -9 -12 0 -4 7 -2 12 3 12 6 0 11 9 11 20 0 11 5 19 11 17 8 -1
12 19 11 63 -1 46 1 59 8 45 8 -19 9 -19 9 2 1 34 -25 53 -75 53 l-44 0 7 53
c4 28 7 80 8 113 l0 62 51 4 c63 5 87 26 78 65 -4 15 -12 31 -17 35 -7 4 -6
12 2 22 7 9 11 22 8 31 -4 8 0 21 8 29 20 19 19 37 -1 29 -13 -5 -14 2 -9 42
3 27 2 51 -3 54 -5 3 -37 39 -71 79 -62 72 -62 73 -64 138 -2 83 14 101 100
103 l58 1 116 -116 c111 -111 117 -115 123 -90 l6 26 335 0 c325 0 335 -1 335
-19 0 -11 4 -22 8 -25 5 -3 66 53 137 124 l128 129 -114 4 c-63 3 -188 13
-279 22 -176 19 -487 26 -507 11 -16 -10 -46 0 -38 14 3 5 35 10 70 10 47 0
64 4 69 15 3 9 18 15 38 15 31 1 32 1 14 15 -24 18 -56 20 -56 3 -1 -8 -6 -6
-14 5 -18 24 -31 21 -55 -10 l-21 -28 6 28 c6 27 6 27 -44 27 -44 0 -51 3 -56
24 -3 13 -14 26 -24 28 -16 5 -20 19 -25 89 -4 67 -9 86 -26 98 -15 13 -21 30
-23 78 -2 38 -7 63 -14 63 -6 0 -66 -11 -134 -25 -68 -14 -127 -25 -131 -25
-5 0 -9 239 -9 530 l0 530 -765 0 -765 0 0 -530 c0 -503 -1 -530 -18 -530 -10
0 -139 24 -287 54 -149 30 -271 53 -273 51 -2 -2 17 -107 43 -235 26 -128 45
-234 42 -236 -2 -2 -64 86 -137 196 -73 110 -136 198 -139 195 -4 -2 -81 -114
-171 -249 l-163 -246 -214 0 -213 0 0 765 0 765 -765 0 -765 0 0 -215z m3854
-11 c21 -21 20 -37 -3 -58 -40 -36 -91 15 -55 55 21 23 37 24 58 3z m-280 -46
c15 -24 -3 -52 -37 -56 -33 -4 -53 28 -37 59 14 25 58 23 74 -3z m564 -4 c27
-19 28 -36 3 -58 -40 -36 -91 15 -55 55 21 23 24 23 52 3z m147 -44 c3 -5 -1
-10 -9 -10 -9 0 -16 5 -16 10 0 6 4 10 9 10 6 0 13 -4 16 -10z m-35 -44 c0
-15 -29 -55 -30 -40 0 5 5 15 12 22 10 10 5 11 -22 6 -35 -7 -35 -7 -17 13 19
22 57 21 57 -1z m-950 -21 c20 -24 -3 -65 -35 -65 -32 0 -55 41 -35 65 7 8 23
15 35 15 12 0 28 -7 35 -15z m993 8 c-7 -2 -19 -2 -25 0 -7 3 -2 5 12 5 14 0
19 -2 13 -5z m132 -13 c9 -29 -12 -60 -40 -60 -31 0 -50 32 -35 60 15 27 66
27 75 0z m-148 -52 c-3 -8 -6 -5 -6 6 -1 11 2 17 5 13 3 -3 4 -12 1 -19z m-32
-28 c3 -5 16 -10 28 -11 12 0 16 -3 9 -6 -18 -7 -62 5 -62 17 0 13 17 13 25 0z
m-385 -156 c16 -82 32 -159 35 -171 5 -22 3 -23 -70 -23 -73 0 -75 1 -70 23 8
32 65 319 65 325 0 3 2 3 5 0 3 -2 18 -72 35 -154z m-225 -48 c30 -77 54 -141
52 -142 -1 -1 -30 -6 -65 -10 l-62 -7 1 169 c0 109 4 162 9 149 5 -11 34 -83
65 -159z m452 -153 c-3 -2 -32 0 -65 4 l-60 8 61 151 62 152 3 -156 c1 -85 1
-157 -1 -159z m174 304 c-1 -12 -15 -9 -19 4 -3 6 1 10 8 8 6 -3 11 -8 11 -12z
m-786 -277 l24 -38 -55 -7 c-31 -4 -57 -5 -58 -3 -4 5 -36 205 -36 225 0 16
29 -25 125 -177z m807 60 l-18 -105 -49 3 c-28 2 -52 5 -54 7 -2 3 27 54 65
114 38 61 70 105 71 98 2 -7 -5 -59 -15 -117z m-95 60 c-48 -80 -47 -80 -47
-19 l0 56 34 -1 34 -1 -21 -35z m324 25 c4 -3 5 -22 2 -43 -3 -20 -1 -61 5
-90 5 -29 6 -55 1 -58 -4 -2 -6 -11 -3 -18 6 -15 -76 -31 -139 -27 -26 2 -37
-1 -35 -10 2 -7 -5 -15 -14 -17 -10 -2 -18 1 -18 7 0 6 6 11 13 11 8 0 9 2 1
8 -9 5 -6 40 9 130 l20 124 75 -6 c41 -4 78 -9 83 -11z m-3108 -12 c7 -22 3
-60 -6 -69 -4 -4 -2 -14 5 -21 9 -11 9 -17 -3 -24 -12 -8 -11 -11 4 -20 17
-10 17 -12 2 -29 -11 -12 -13 -20 -5 -25 34 -21 -32 -25 -398 -25 -314 1 -401
3 -414 14 -15 11 -18 30 -18 115 l0 101 414 0 c386 0 415 -1 419 -17z m2107
-35 l0 -52 -30 47 c-16 26 -30 50 -30 52 0 3 14 5 30 5 29 0 30 -1 30 -52z
m214 15 c-4 -21 -8 -39 -9 -41 -1 -1 -9 16 -18 38 l-15 40 24 0 c23 0 24 -2
18 -37z m234 7 c-12 -37 -28 -48 -28 -21 0 10 -3 26 -6 35 -5 12 0 16 19 16
24 0 25 -2 15 -30z m-644 -75 c9 -50 16 -98 16 -107 0 -20 -30 -25 -31 -5 0
10 -2 10 -6 0 -2 -7 -14 -13 -25 -13 -17 0 -18 3 -8 15 8 10 9 15 2 15 -6 0
-15 -8 -21 -17 -8 -15 -12 -16 -22 -5 -11 10 -11 12 0 12 9 0 12 14 10 48 -3
42 -1 47 19 50 25 4 26 6 12 33 -7 13 -7 19 0 19 5 0 10 9 10 19 0 15 18 33
27 27 1 -1 9 -42 17 -91z m-2837 8 c-2 -16 -4 -3 -4 27 0 30 2 43 4 28 2 -16
2 -40 0 -55z m2773 2 c0 -2 -7 -5 -15 -9 -9 -3 -15 0 -15 9 0 9 6 12 15 9 8
-4 15 -7 15 -9z m913 -145 c48 -7 87 -16 87 -20 0 -4 -15 -23 -32 -44 l-33
-36 -85 10 c-108 13 -428 13 -545 0 l-90 -10 -32 37 c-18 20 -33 40 -33 44 0
7 53 16 180 30 103 10 476 3 583 -11z m262 -31 c10 -15 -1 -23 -20 -15 -9 3
-13 10 -10 16 8 13 22 13 30 -1z m-75 -34 c0 -8 -2 -15 -4 -15 -2 0 -6 7 -10
15 -3 8 -1 15 4 15 6 0 10 -7 10 -15z m65 -4 c3 -5 1 -12 -5 -16 -5 -3 -10 1
-10 9 0 18 6 21 15 7z m-8 -73 c-3 -8 -6 -5 -6 6 -1 11 2 17 5 13 3 -3 4 -12
1 -19z m-971 -23 c18 -34 18 -37 2 -63 -31 -48 -68 -132 -68 -153 0 -11 11
-31 24 -44 l24 -24 -78 -75 c-76 -74 -79 -76 -128 -76 -64 0 -106 15 -98 35 3
8 0 17 -6 21 -7 4 -6 9 3 15 12 7 12 12 1 30 -8 11 -9 18 -3 14 20 -12 31 5
18 26 -10 17 -8 22 17 44 16 14 26 28 22 32 -6 7 232 253 245 253 3 0 14 -16
25 -35z m649 26 l60 -6 3 -37 3 -38 -48 8 c-62 9 -459 9 -540 0 l-63 -8 0 40
0 39 53 4 c90 6 469 5 532 -2z m-20 -121 c121 -14 125 -16 125 -51 0 -16 6
-38 12 -49 8 -13 9 -23 3 -29 -27 -26 -403 -39 -620 -21 -136 12 -155 16 -155
35 0 31 33 95 52 101 72 22 429 31 583 14z m-123 -222 c8 -24 -4 -108 -14
-102 -6 4 -14 1 -18 -7 -7 -10 -11 -10 -24 0 -8 7 -19 10 -24 7 -5 -3 -35 1
-67 9 -32 7 -64 11 -71 8 -8 -3 -13 11 -15 46 l-4 51 116 0 c85 0 118 -3 121
-12z m268 -23 c0 -8 -4 -15 -10 -15 -5 0 -10 7 -10 15 0 8 5 15 10 15 6 0 10
-7 10 -15z m760 -115 c0 -5 -5 -10 -11 -10 -5 0 -7 5 -4 10 3 6 8 10 11 10 2
0 4 -4 4 -10z m-3156 -129 c3 -5 15 -7 26 -4 28 7 26 -21 -2 -41 -29 -21 -38
-20 -38 3 0 11 -7 27 -16 35 -14 15 -14 16 5 16 11 0 22 -4 25 -9z m-2464
-343 l0 -243 -57 -36 -56 -37 57 -37 56 -38 0 -78 0 -79 -54 0 c-45 0 -54 3
-59 20 -4 16 -13 20 -44 19 -31 -1 -34 -2 -14 -8 32 -9 40 -31 11 -31 -11 0
-32 11 -45 24 l-25 25 -2 370 -3 371 118 0 117 0 0 -242z m2750 92 c0 -5 -9
-10 -20 -10 -11 0 -20 5 -20 10 0 6 9 10 20 10 11 0 20 -4 20 -10z m-2845
-980 c3 -5 1 -10 -4 -10 -6 0 -11 5 -11 10 0 6 2 10 4 10 3 0 8 -4 11 -10z
m-52 -7 c-7 -2 -19 -2 -25 0 -7 3 -2 5 12 5 14 0 19 -2 13 -5z m97 -3 c0 -5
-2 -10 -4 -10 -3 0 -8 5 -11 10 -3 6 -1 10 4 10 6 0 11 -4 11 -10z m3195 -50
c3 -5 1 -10 -4 -10 -6 0 -11 5 -11 10 0 6 2 10 4 10 3 0 8 -4 11 -10z m-1613
-200 c2 -20 8 -24 27 -22 13 2 21 -1 17 -6 -7 -12 95 -3 112 10 7 7 12 7 12 1
0 -10 109 -10 184 0 21 3 51 15 67 26 36 27 139 30 163 5 17 -16 18 -20 18
-102 0 -48 -5 -59 -40 -100 -24 -29 -42 -63 -46 -87 -4 -22 -15 -48 -24 -58
-14 -16 -14 -19 -2 -27 12 -7 7 -18 -28 -52 -23 -24 -42 -49 -42 -55 0 -6 -7
-13 -15 -17 -8 -3 -15 -10 -15 -16 0 -5 7 -10 15 -10 8 0 15 7 15 15 0 8 4 15
9 15 5 0 14 14 21 31 8 19 16 26 20 19 6 -9 13 -9 29 -1 20 11 21 9 21 -23 0
-19 -4 -38 -10 -41 -6 -3 -7 1 -4 9 3 9 1 16 -5 16 -6 0 -11 -3 -12 -7 -7 -96
-8 -94 56 -103 l40 -5 1 -112 c2 -113 2 -113 -22 -114 -13 -1 -28 -3 -34 -4
-5 -1 -14 -3 -20 -4 -5 0 -10 -6 -10 -12 0 -5 5 -7 10 -4 6 3 10 -4 10 -16 0
-18 -2 -19 -15 -9 -13 11 -14 10 -9 -3 3 -9 -3 -25 -15 -38 -15 -17 -18 -26
-10 -41 5 -10 7 -22 4 -27 -3 -5 1 -11 7 -14 7 -2 9 -8 5 -13 -5 -5 -14 -2
-20 6 -9 12 -26 15 -62 13 -44 -2 -47 -2 -22 8 15 6 27 18 27 26 0 13 -3 13
-15 3 -8 -7 -15 -9 -15 -5 0 4 -7 2 -15 -5 -13 -10 -15 -9 -15 9 0 15 6 21 21
21 12 0 19 5 16 13 -2 6 -15 11 -28 10 -13 -1 -52 4 -86 9 -46 8 -63 16 -66
30 -4 14 1 18 23 18 16 0 31 4 34 9 6 8 -243 23 -256 14 -5 -2 -8 -134 -8
-292 0 -236 -3 -291 -14 -300 -10 -9 -16 -9 -21 -1 -4 6 -16 8 -27 4 -14 -4
-18 -2 -14 5 4 6 1 12 -6 12 -71 6 -117 6 -113 -1 3 -5 1 -11 -5 -15 -5 -3
-10 1 -10 10 0 9 -4 13 -10 10 -7 -4 -10 63 -10 194 0 111 -3 201 -8 201 -4 0
-90 -83 -192 -185 -102 -102 -189 -185 -194 -185 -6 0 -22 -12 -37 -26 -18
-17 -32 -23 -41 -18 -7 5 -23 7 -35 6 -22 -3 -69 38 -55 47 10 7 9 52 -2 69
-6 11 0 14 20 11 10 -1 24 24 24 44 0 10 -4 16 -10 12 -5 -3 -4 5 3 17 26 50
27 50 54 33 14 -9 27 -15 29 -12 3 2 6 25 7 50 2 26 6 50 10 53 4 4 17 -16 29
-44 17 -37 29 -52 43 -52 18 0 17 3 -8 26 -21 19 -26 29 -18 37 17 17 13 27
-10 27 -14 0 -19 5 -17 18 2 9 10 16 16 15 7 -2 12 2 12 8 0 7 45 58 100 114
55 55 100 104 100 108 0 4 -45 7 -101 7 -95 0 -135 9 -151 34 -14 21 -8 32 23
43 27 10 30 15 20 27 -7 8 -19 12 -27 9 -8 -3 -14 0 -14 6 0 7 7 14 15 17 9 4
15 19 15 38 0 55 1 55 205 58 l190 3 -1 139 c-1 117 -4 140 -18 148 -9 5 -16
22 -16 38 0 23 -5 30 -20 30 -11 0 -20 5 -20 10 0 6 9 10 19 10 11 0 23 5 26
10 4 7 -11 9 -42 7 -50 -4 -88 7 -78 23 3 5 -3 14 -14 19 -25 14 -41 14 -41 1
0 -5 9 -10 20 -10 15 0 20 -7 20 -25 0 -30 -25 -34 -33 -6 -3 11 -21 27 -42
35 -20 9 -34 19 -31 24 2 4 -11 6 -31 4 -26 -3 -34 -1 -28 7 4 8 -1 14 -14 18
-37 10 -17 27 45 40 46 10 64 10 82 1 18 -9 25 -9 31 0 10 16 57 20 54 5 -4
-17 15 -16 67 2 23 8 46 12 51 9 5 -3 12 8 15 25 6 29 9 30 63 33 31 2 82 3
113 3 54 0 57 -1 60 -25z m-645 -596 c-3 -3 -12 -4 -19 -1 -8 3 -5 6 6 6 11 1
17 -2 13 -5z m0 -36 c-3 -8 -6 -5 -6 6 -1 11 2 17 5 13 3 -3 4 -12 1 -19z
m943 -288 c0 -5 -7 -7 -15 -4 -8 4 -15 8 -15 10 0 2 7 4 15 4 8 0 15 -4 15
-10z m230 -70 c0 -5 -4 -10 -9 -10 -6 0 -13 5 -16 10 -3 6 1 10 9 10 9 0 16
-4 16 -10z m-115 -20 c3 -5 1 -10 -4 -10 -6 0 -11 5 -11 10 0 6 2 10 4 10 3 0
8 -4 11 -10z m90 -28 c-9 -10 -45 -12 -45 -4 0 15 11 20 31 15 11 -3 17 -8 14
-11z m-105 -2 c0 -5 -5 -10 -11 -10 -5 0 -7 5 -4 10 3 6 8 10 11 10 2 0 4 -4
4 -10z m60 -30 c0 -5 -8 -17 -19 -27 -10 -10 -21 -25 -24 -33 -3 -9 -6 -6 -6
9 -1 14 6 33 16 43 18 20 33 24 33 8z m20 -55 c10 -13 9 -15 -9 -15 -12 0 -21
6 -21 15 0 8 4 15 9 15 5 0 14 -7 21 -15z m-189 -32 c13 -16 12 -17 -3 -4 -10
7 -18 15 -18 17 0 8 8 3 21 -13z m159 -13 c0 -7 6 -7 19 0 11 5 28 9 38 9 17
-1 17 -2 1 -6 -25 -6 -22 -23 3 -23 16 0 19 -3 11 -12 -11 -14 -4 -68 9 -68 5
0 6 6 3 14 -6 15 11 32 19 19 9 -15 -20 -155 -34 -163 -7 -5 -21 -4 -31 1 -10
5 -18 6 -18 2 0 -4 -5 -1 -10 8 -6 11 -22 15 -54 13 -25 -2 -48 1 -51 7 -4 5
-15 9 -25 9 -11 0 -27 11 -36 24 -13 21 -19 23 -41 15 -31 -11 -41 -5 -24 15
7 8 10 20 6 26 -3 5 2 10 14 10 10 0 21 -6 24 -12 2 -7 2 8 -1 35 -3 30 -1 47
6 47 6 0 9 -7 6 -15 -8 -19 13 -19 46 0 14 8 34 14 45 15 11 0 26 9 33 20 13
21 42 28 42 10z m-2076 -350 c16 -6 35 -6 49 -1 32 12 44 3 52 -41 4 -23 12
-35 19 -32 7 3 25 0 41 -6 19 -7 31 -8 39 0 5 5 19 10 29 10 15 0 18 -5 13
-22 -3 -13 -6 -30 -6 -39 0 -26 -42 -32 -62 -9 -9 11 -28 20 -42 20 -23 0 -26
-4 -25 -32 2 -31 2 -31 6 -5 3 19 10 27 24 27 23 0 27 -38 4 -46 -8 -4 -15
-14 -15 -24 0 -10 -7 -20 -15 -23 -12 -5 -14 -86 -15 -562 0 -426 -3 -560 -13
-569 -17 -17 -62 -13 -82 7 -9 10 -20 15 -25 12 -5 -3 -11 1 -14 7 -3 7 -4 1
-2 -14 2 -16 -1 -28 -5 -28 -5 0 -9 5 -9 10 0 6 -17 10 -38 10 l-37 0 -3 55
c-3 57 -2 59 43 56 l20 -1 -20 9 c-11 4 -25 6 -32 4 -9 -3 -13 132 -17 554 -2
307 -5 565 -6 573 -1 8 2 34 5 57 l8 42 51 4 c28 2 52 4 53 5 1 1 13 -2 27 -8z
m682 -26 c2 -12 -1 -13 -12 -3 -7 6 -11 16 -8 21 7 11 17 3 20 -18z m-976 -85
c0 -18 -2 -19 -15 -5 -8 8 -15 17 -15 20 0 3 7 6 15 6 9 0 15 -9 15 -21z m50
7 c0 -8 3 -21 6 -30 4 -10 1 -16 -9 -16 -21 0 -27 12 -20 38 6 24 23 30 23 8z
m78 -22 c1 -1 -11 -1 -28 0 -16 1 -30 6 -30 12 0 21 14 24 34 7 12 -10 22 -18
24 -19z m1706 -40 c21 -21 20 -37 -3 -58 -40 -36 -91 15 -55 55 21 23 37 24
58 3z m-1357 -36 c-3 -8 -6 -5 -6 6 -1 11 2 17 5 13 3 -3 4 -12 1 -19z m1077
-10 c15 -24 -3 -52 -37 -56 -33 -4 -53 28 -37 59 14 25 58 23 74 -3z m564 -4
c27 -19 28 -36 3 -58 -40 -36 -91 15 -55 55 21 23 24 23 52 3z m-839 -108 c17
-20 -3 -66 -28 -66 -28 0 -53 38 -40 62 11 21 52 24 68 4z m1126 -6 c9 -29
-12 -60 -40 -60 -31 0 -50 32 -35 60 15 27 66 27 75 0z m-565 -236 c16 -82 32
-159 35 -171 5 -22 3 -23 -70 -23 -73 0 -75 1 -70 23 8 32 65 319 65 325 0 3
2 3 5 0 3 -2 18 -72 35 -154z m-225 -48 c30 -77 54 -141 52 -142 -1 -1 -30 -6
-65 -10 l-62 -7 1 169 c0 109 4 162 9 149 5 -11 34 -83 65 -159z m452 -153
c-3 -2 -32 0 -65 4 l-60 8 61 151 62 152 3 -156 c1 -85 1 -157 -1 -159z m-612
27 l24 -38 -55 -7 c-31 -4 -57 -5 -58 -3 -4 5 -36 205 -36 225 0 16 29 -25
125 -177z m807 60 l-18 -105 -49 3 c-28 2 -52 5 -54 7 -2 3 27 54 65 114 38
61 70 105 71 98 2 -7 -5 -59 -15 -117z m-119 -150 c48 -7 87 -16 87 -20 0 -4
-15 -23 -32 -44 l-33 -36 -85 10 c-108 13 -428 13 -545 0 l-90 -10 -32 37
c-18 20 -33 40 -33 44 0 7 53 16 180 30 103 10 476 3 583 -11z m-78 -139 l60
-6 3 -37 3 -38 -48 8 c-62 9 -459 9 -540 0 l-63 -8 0 40 0 39 53 4 c90 6 469
5 532 -2z m-20 -121 c121 -14 125 -16 125 -51 0 -16 6 -38 12 -49 8 -13 9 -23
3 -29 -27 -26 -403 -39 -620 -21 -136 12 -155 16 -155 35 0 31 33 95 52 101
72 22 429 31 583 14z m-1086 -326 c-6 -8 -18 -14 -27 -14 -13 0 -12 3 3 20 20
22 43 17 24 -6z m81 -134 c0 -44 -1 -80 -3 -80 -1 0 -38 36 -82 80 l-80 80 83
0 82 0 0 -80z m-460 -391 c0 -5 -4 -9 -10 -9 -5 0 -10 7 -10 16 0 8 5 12 10 9
6 -3 10 -10 10 -16z m137 -745 c6 -16 -15 -37 -29 -28 -4 3 -8 14 -8 25 0 23
28 26 37 3z m259 -379 c19 -17 22 -29 19 -77 -3 -64 -4 -65 -59 -131 -37 -44
-43 -48 -73 -42 -43 8 -98 -18 -112 -54 -7 -14 -10 -48 -7 -75 3 -26 2 -46 -1
-42 -3 3 -38 -24 -77 -61 l-71 -65 -3 103 -3 103 30 23 c36 29 50 83 30 119
-12 24 -9 29 87 125 l99 100 60 -3 c43 -2 65 -9 81 -23z m-586 1 c0 -22 34
-37 83 -37 116 1 112 3 130 -84 6 -30 5 -30 -33 -27 -54 5 -100 -38 -100 -95
0 -22 5 -44 12 -51 9 -9 9 -12 0 -12 -7 0 -12 5 -12 11 0 7 -10 9 -25 5 -25
-6 -29 -1 -26 37 1 9 -2 17 -7 17 -10 0 -22 -71 -22 -131 0 -22 4 -39 8 -39 4
0 25 20 45 45 38 45 63 56 73 32 4 -11 -50 -153 -112 -294 l-17 -38 -38 187
-38 187 29 30 c41 41 41 91 1 132 -40 40 -88 40 -130 0 -21 -20 -31 -38 -31
-58 0 -36 21 -83 37 -83 24 0 21 -39 -17 -220 l-38 -185 -2 170 c-1 94 -6 197
-11 230 -6 33 -10 74 -10 90 l0 30 -13 -24 c-9 -16 -15 -20 -21 -12 -4 7 -13
10 -20 7 -7 -2 -16 2 -19 10 -9 24 -71 45 -115 38 -33 -5 -41 -3 -51 15 -10
19 -7 23 19 39 17 9 31 23 31 30 0 8 8 12 18 10 9 -2 16 -11 16 -21 -2 -21 12
-22 32 -2 11 10 29 13 62 10 30 -3 49 0 54 8 6 9 8 8 8 -3 1 -25 20 10 20 36
0 21 5 22 115 23 96 2 115 -1 115 -13z m-86 -162 c21 -21 20 -37 -3 -58 -40
-36 -91 15 -55 55 21 23 37 24 58 3z m-280 -46 c15 -24 -3 -52 -37 -56 -33 -4
-53 28 -37 59 14 25 58 23 74 -3z m564 -4 c27 -19 28 -36 3 -58 -40 -36 -91
15 -55 55 21 23 24 23 52 3z m-838 -109 c20 -24 -3 -65 -35 -65 -32 0 -55 41
-35 65 7 8 23 15 35 15 12 0 28 -7 35 -15z m1125 -5 c9 -29 -12 -60 -40 -60
-31 0 -50 32 -35 60 15 27 66 27 75 0z m-565 -236 c16 -82 32 -159 35 -171 5
-22 3 -23 -70 -23 -73 0 -75 1 -70 23 8 32 65 319 65 325 0 3 2 3 5 0 3 -2 18
-72 35 -154z m-225 -48 c30 -77 54 -141 52 -142 -1 -1 -30 -6 -65 -10 l-62 -7
1 169 c0 109 4 162 9 149 5 -11 34 -83 65 -159z m452 -153 c-3 -2 -32 0 -65 4
l-60 8 61 151 62 152 3 -156 c1 -85 1 -157 -1 -159z m193 297 c0 -5 -4 -10
-10 -10 -5 0 -10 5 -10 10 0 6 5 10 10 10 6 0 10 -4 10 -10z m-805 -270 l24
-38 -55 -7 c-31 -4 -57 -5 -58 -3 -4 5 -36 205 -36 225 0 16 29 -25 125 -177z
m807 60 l-18 -105 -49 3 c-28 2 -52 5 -54 7 -2 3 27 54 65 114 38 61 70 105
71 98 2 -7 -5 -59 -15 -117z m176 91 l63 -1 -7 -57 c-4 -32 -6 -62 -6 -68 6
-38 7 -87 1 -96 -7 -11 -173 -18 -184 -7 -4 4 0 58 10 121 17 104 20 113 39
111 12 -1 49 -3 84 -3z m-258 -6 c0 -3 -13 -26 -30 -53 l-30 -47 0 53 c0 51 0
52 30 52 17 0 30 -2 30 -5z m-37 -235 c48 -7 87 -16 87 -20 0 -4 -15 -23 -32
-44 l-33 -36 -85 10 c-108 13 -428 13 -545 0 l-90 -10 -32 37 c-18 20 -33 40
-33 44 0 7 53 16 180 30 103 10 476 3 583 -11z m-78 -139 l60 -6 3 -37 3 -38
-48 8 c-62 9 -459 9 -540 0 l-63 -8 0 40 0 39 53 4 c90 6 469 5 532 -2z m299
-130 c110 -112 137 -143 132 -159 -4 -11 -3 -23 1 -25 4 -3 6 -35 5 -71 -3
-62 -5 -66 -30 -73 -15 -4 -44 -7 -66 -6 -34 0 -47 9 -116 78 l-78 78 20 28
c21 27 21 29 3 91 -9 35 -23 70 -30 78 -24 27 -28 66 -10 94 10 14 20 26 24
26 4 0 69 -63 145 -139z m-319 9 c121 -14 125 -16 125 -51 0 -16 6 -38 12 -49
8 -13 9 -23 3 -29 -27 -26 -403 -39 -620 -21 -136 12 -155 16 -155 35 0 31 33
95 52 101 72 22 429 31 583 14z m-125 -245 c0 -34 -1 -34 -26 -23 -19 9 -30 9
-44 1 -10 -7 -21 -9 -24 -6 -10 11 -50 11 -63 1 -7 -6 -15 -3 -21 8 -9 15 -12
16 -26 5 -9 -8 -20 -11 -24 -7 -4 4 1 12 11 17 21 12 23 33 2 25 -8 -3 -15 -1
-15 4 0 6 47 10 115 10 l115 0 0 -35z m650 -215 c0 -44 -1 -80 -3 -80 -1 0
-38 36 -82 80 l-80 80 83 0 82 0 0 -80z m884 37 c4 -18 18 -19 242 -14 131 2
250 1 266 -4 25 -7 27 -6 18 11 -6 10 -10 21 -10 24 0 10 48 6 75 -6 21 -10
25 -18 25 -56 0 -37 -2 -43 -14 -33 -19 16 -27 -9 -26 -76 1 -61 -9 -135 -21
-148 -5 -5 -9 -28 -9 -51 0 -24 -5 -46 -10 -49 -7 -4 -8 -11 -1 -18 5 -7 6
-30 1 -57 -5 -25 -8 -47 -8 -50 0 -2 -9 -7 -19 -11 -10 -4 -13 -8 -6 -8 7 -1
10 -7 7 -15 -6 -16 32 -46 58 -46 21 0 27 -21 23 -80 -2 -25 -3 -68 -4 -96
l-1 -51 -40 -7 c-43 -7 -46 -14 -41 -94 3 -30 0 -33 -18 -27 -17 5 -21 2 -21
-19 0 -32 -10 -57 -21 -51 -4 3 -7 11 -5 18 1 7 1 9 -1 5 -3 -5 -12 -8 -22 -8
-9 0 -22 -5 -29 -12 -7 -7 -12 -8 -12 -4 0 5 8 15 18 23 15 13 15 14 -10 8
-16 -3 -28 -1 -28 5 0 5 5 10 10 10 6 0 10 5 10 10 0 11 -43 14 -53 4 -4 -4
13 -28 38 -53 24 -25 84 -89 134 -141 l91 -95 0 -86 c0 -105 -6 -112 -85 -106
-54 4 -60 7 -113 60 l-56 57 17 30 18 30 -49 0 -50 0 -128 130 c-71 72 -132
130 -136 130 -5 0 -8 -58 -8 -130 l0 -130 -115 0 -115 0 0 208 c0 148 -3 211
-12 220 -9 9 -72 12 -220 12 l-208 0 0 115 0 115 130 0 c72 0 130 3 130 8 0 4
-58 66 -130 137 -126 126 -130 131 -130 172 0 46 -6 51 -36 29 -17 -13 -22
-12 -51 17 -18 17 -33 40 -33 50 0 11 -10 28 -22 38 -17 16 -18 19 -5 19 21 0
21 1 2 36 -9 17 -11 30 -5 32 6 2 10 14 10 27 0 27 18 44 45 44 11 0 32 3 47
7 21 5 35 0 60 -21 31 -26 36 -27 106 -21 52 5 78 3 89 -5 12 -10 16 -10 23 2
7 11 12 11 21 2 8 -8 17 -9 24 -3 6 5 45 11 85 12 60 1 74 5 77 19 5 19 38 24
165 24 57 0 68 -3 72 -18z m1440 -183 c21 -21 20 -37 -3 -58 -12 -11 -27 -15
-40 -11 -29 9 -37 42 -15 66 21 23 37 24 58 3z m-280 -46 c15 -24 -3 -52 -37
-56 -33 -4 -53 28 -37 59 14 25 58 23 74 -3z m564 -4 c27 -19 28 -36 3 -58
-40 -36 -91 15 -55 55 21 23 24 23 52 3z m-838 -109 c20 -24 -3 -65 -35 -65
-32 0 -55 41 -35 65 7 8 23 15 35 15 12 0 28 -7 35 -15z m1125 -5 c9 -29 -12
-60 -40 -60 -31 0 -50 32 -35 60 15 27 66 27 75 0z m-565 -236 c16 -82 32
-159 35 -171 5 -22 3 -23 -70 -23 -73 0 -75 1 -70 23 8 32 65 319 65 325 0 3
2 3 5 0 3 -2 18 -72 35 -154z m-225 -48 c30 -77 54 -141 52 -142 -1 -1 -30 -6
-65 -10 l-62 -7 1 169 c0 109 4 162 9 149 5 -11 34 -83 65 -159z m452 -153
c-3 -2 -32 0 -65 4 l-60 8 61 151 62 152 3 -156 c1 -85 1 -157 -1 -159z m-612
27 l24 -38 -55 -7 c-31 -4 -57 -5 -58 -3 -4 5 -36 205 -36 225 0 16 29 -25
125 -177z m807 60 l-18 -105 -49 3 c-28 2 -52 5 -54 7 -2 3 27 54 65 114 38
61 70 105 71 98 2 -7 -5 -59 -15 -117z m-119 -150 c48 -7 87 -16 87 -20 0 -4
-15 -23 -32 -44 l-33 -36 -85 10 c-108 13 -428 13 -545 0 l-90 -10 -32 37
c-18 20 -33 40 -33 44 0 7 53 16 180 30 103 10 476 3 583 -11z m-78 -139 l60
-6 3 -37 3 -38 -48 8 c-62 9 -459 9 -540 0 l-63 -8 0 40 0 39 53 4 c90 6 469
5 532 -2z m-1170 -11 c3 -5 -1 -10 -10 -10 -9 0 -13 5 -10 10 3 6 8 10 10 10
2 0 7 -4 10 -10z m1150 -110 c121 -14 125 -16 125 -51 0 -16 6 -38 12 -49 8
-13 9 -23 3 -29 -27 -26 -403 -39 -620 -21 -136 12 -155 16 -155 35 0 31 33
95 52 101 72 22 429 31 583 14z m-1005 -460 c0 -44 -1 -80 -3 -80 -1 0 -38 36
-82 80 l-80 80 83 0 82 0 0 -80z m1482 38 c3 -7 5 -16 2 -20 -3 -4 0 -17 6
-28 24 -45 2 -38 -50 16 l-55 56 45 -6 c24 -4 48 -12 52 -18z m-1393 -34 c-20
-20 -37 -30 -42 -25 -12 12 4 40 34 55 39 21 43 6 8 -30z m-2069 -64 c16 0 32
-4 35 -10 3 -5 11 -10 16 -10 6 0 7 5 3 11 -9 16 15 29 54 29 23 0 32 -4 30
-12 -3 -7 -13 -13 -23 -13 -10 0 -20 -6 -22 -12 -5 -15 18 -17 33 -4 19 17 61
21 74 6 11 -13 16 -12 40 5 24 17 29 18 48 4 22 -15 30 -44 12 -44 -5 0 -10 4
-10 10 0 5 -8 6 -17 3 -9 -4 -12 -8 -6 -10 15 -5 3 -53 -14 -53 -9 0 -13 6 -9
15 3 8 1 15 -4 15 -6 0 -10 -7 -10 -15 0 -27 -29 -16 -37 15 -4 17 -11 30 -15
30 -5 0 -15 0 -23 0 -8 0 -15 -7 -15 -15 0 -11 -9 -14 -35 -12 -19 1 -35 5
-35 8 0 4 -11 9 -24 11 -16 3 -23 1 -20 -7 5 -13 -10 -28 -38 -38 -12 -4 -18
-1 -18 8 0 8 8 15 17 15 13 0 14 3 5 12 -9 9 -16 8 -30 -5 -24 -22 -52 -22
-52 0 0 21 53 90 58 75 2 -7 17 -12 32 -12z m2619 -186 l128 -196 131 199 c73
109 132 191 132 183 0 -17 -82 -413 -86 -419 -2 -2 -10 1 -18 8 -7 6 -27 11
-42 10 -16 -1 -79 2 -141 6 -103 7 -114 10 -142 35 -27 25 -33 43 -61 177 -16
81 -32 158 -35 171 -3 12 -3 22 0 22 3 0 63 -88 134 -196z m-3212 164 c-3 -8
-6 -5 -6 6 -1 11 2 17 5 13 3 -3 4 -12 1 -19z m773 -48 c0 -5 -5 -10 -11 -10
-5 0 -7 5 -4 10 3 6 8 10 11 10 2 0 4 -4 4 -10z m1080 -35 c11 -13 8 -15 -14
-15 -16 0 -26 5 -26 15 0 8 6 15 14 15 7 0 19 -7 26 -15z m70 -30 c0 -9 -9
-15 -25 -15 -16 0 -25 6 -25 15 0 9 9 15 25 15 16 0 25 -6 25 -15z m-132 -22
c-16 -2 -40 -2 -55 0 -16 2 -3 4 27 4 30 0 43 -2 28 -4z m332 -174 c0 -5 -4
-9 -10 -9 -5 0 -10 7 -10 16 0 8 5 12 10 9 6 -3 10 -10 10 -16z m1847 -55 c3
-8 -3 -25 -14 -37 -11 -12 -18 -28 -16 -34 3 -7 -3 -13 -14 -14 -16 0 -16 -1
2 -9 17 -6 14 -8 -15 -12 -24 -2 -10 -6 45 -12 l80 -8 -3 -104 c-2 -60 -7
-104 -13 -104 -6 0 -8 -4 -4 -9 11 -18 -105 -23 -404 -17 -166 3 -428 6 -582
6 -262 0 -279 1 -279 18 0 10 -4 22 -9 28 -13 15 -21 69 -11 84 5 8 5 19 1 25
-5 5 -12 24 -15 41 l-7 31 377 6 c208 4 443 7 524 7 111 0 150 3 159 13 6 8 8
17 4 20 -10 11 -43 8 -43 -3 0 -5 -7 -7 -15 -4 -8 4 -22 1 -30 -6 -12 -10 -20
-7 -43 17 l-27 30 150 31 c175 36 194 37 202 16z m-637 -24 c0 -5 -20 -10 -45
-10 -25 0 -45 5 -45 10 0 6 20 10 45 10 25 0 45 -4 45 -10z m-3652 -802 c7 -7
12 -33 12 -59 l0 -46 -49 -1 c-42 -1 -51 2 -56 19 -9 26 11 49 41 49 13 0 24
5 24 10 0 6 -11 10 -24 10 -14 0 -27 4 -30 9 -13 20 63 28 82 9z m3072 -3 c0
-9 -9 -15 -24 -15 -16 0 -27 -7 -31 -20 -9 -27 1 -40 31 -40 15 0 24 -6 24
-15 0 -19 -60 -21 -78 -3 -17 17 -15 74 4 92 20 21 74 21 74 1z"/>
<path d="M4780 11435 c0 -14 4 -25 9 -25 5 0 8 11 7 25 -1 33 -16 33 -16 0z"/>
<path d="M1860 9030 c0 -5 5 -10 11 -10 5 0 7 5 4 10 -3 6 -8 10 -11 10 -2 0
-4 -4 -4 -10z"/>
<path d="M2420 8763 l0 -47 30 29 c16 15 27 32 23 38 -3 5 1 13 8 18 10 6 2 9
-23 9 l-38 0 0 -47z"/>
<path d="M2806 8681 c-10 -10 -13 -22 -8 -25 5 -3 14 6 20 19 14 30 11 31 -12
6z"/>
<path d="M2716 8616 c3 -8 12 -17 21 -20 11 -5 13 -2 9 10 -3 8 -6 18 -6 20 0
2 -7 4 -15 4 -8 0 -12 -6 -9 -14z"/>
<path d="M2861 8604 c0 -11 3 -14 6 -6 3 7 2 16 -1 19 -3 4 -6 -2 -5 -13z"/>
<path d="M2630 8575 l-34 -35 37 0 c36 0 37 1 37 35 0 19 -1 35 -3 35 -2 0
-18 -16 -37 -35z"/>
<path d="M2800 8574 c0 -8 5 -12 10 -9 6 4 8 11 5 16 -9 14 -15 11 -15 -7z"/>
<path d="M2725 8550 c-3 -5 3 -10 15 -10 12 0 18 5 15 10 -3 6 -10 10 -15 10
-5 0 -12 -4 -15 -10z"/>
<path d="M2820 8550 c0 -5 7 -10 16 -10 8 0 12 5 9 10 -3 6 -10 10 -16 10 -5
0 -9 -4 -9 -10z"/>
<path d="M1817 8489 c6 -22 23 -26 23 -5 0 8 -6 16 -14 19 -10 4 -12 0 -9 -14z"/>
<path d="M2765 8269 c-4 -6 -5 -12 -2 -15 2 -3 7 2 10 11 7 17 1 20 -8 4z"/>
<path d="M1820 8051 c0 -6 5 -13 10 -16 6 -3 10 1 10 9 0 9 -4 16 -10 16 -5 0
-10 -4 -10 -9z"/>
<path d="M1760 7939 c0 -5 5 -7 10 -4 6 3 10 8 10 11 0 2 -4 4 -10 4 -5 0 -10
-5 -10 -11z"/>
<path d="M1875 7940 c-3 -5 1 -10 9 -10 9 0 16 5 16 10 0 6 -4 10 -9 10 -6 0
-13 -4 -16 -10z"/>
<path d="M2848 7893 c7 -3 16 -2 19 1 4 3 -2 6 -13 5 -11 0 -14 -3 -6 -6z"/>
<path d="M680 6270 c0 -5 5 -10 10 -10 6 0 10 5 10 10 0 6 -4 10 -10 10 -5 0
-10 -4 -10 -10z"/>
<path d="M2431 2463 c-17 -37 -14 -43 24 -43 32 0 35 3 35 29 0 22 -5 30 -24
33 -18 4 -27 -1 -35 -19z"/>
<path d="M1050 1360 c0 -5 5 -10 11 -10 5 0 7 5 4 10 -3 6 -8 10 -11 10 -2 0
-4 -4 -4 -10z"/>
<path d="M4300 905 c0 -8 7 -15 15 -15 8 0 15 7 15 15 0 8 -7 15 -15 15 -8 0
-15 -7 -15 -15z"/>
<path d="M3250 670 c0 -5 5 -10 11 -10 5 0 7 5 4 10 -3 6 -8 10 -11 10 -2 0
-4 -4 -4 -10z"/>
<path d="M110 104 c0 -17 22 -14 28 4 2 7 -3 12 -12 12 -9 0 -16 -7 -16 -16z"/>
<path d="M7650 11710 c0 -517 0 -530 -19 -530 -17 0 -119 19 -188 35 -22 5
-23 3 -23 -60 0 -57 2 -65 19 -65 15 0 19 -11 25 -65 7 -67 23 -115 38 -115 4
0 8 5 8 10 0 17 39 -28 45 -53 4 -12 14 -28 24 -34 15 -10 23 -7 42 13 31 33
39 30 40 -13 1 -24 3 -29 6 -15 2 12 7 22 10 22 4 0 38 -31 77 -68 l71 -69
205 -6 c130 -4 206 -10 208 -16 6 -17 62 -13 68 4 5 13 11 12 41 -6 32 -20 42
-21 158 -14 68 4 162 4 209 0 74 -6 86 -10 86 -26 0 -14 -10 -20 -50 -25 -32
-4 -50 -11 -50 -20 0 -20 86 -19 97 1 7 12 18 13 55 6 43 -8 49 -6 72 18 l25
26 -29 17 c-46 26 -37 38 29 38 39 0 63 5 71 14 6 8 19 12 28 9 12 -3 13 -2 5
4 -9 7 -1 21 32 53 48 47 56 42 36 -27 -9 -29 -7 -31 20 -35 16 -3 31 -2 34 0
3 3 5 42 5 86 l0 80 68 -65 c37 -36 80 -71 95 -79 25 -13 26 -15 10 -24 -10
-6 -52 -11 -93 -11 l-75 0 -3 -681 c-3 -590 -1 -682 12 -693 22 -18 57 6 50
35 -4 16 0 26 15 34 12 6 21 19 21 28 0 10 6 26 14 37 15 22 16 26 16 54 0 10
8 21 19 24 16 4 17 11 12 49 -4 24 -10 49 -14 55 -11 17 14 28 24 12 5 -8 7
-24 4 -36 -3 -13 -1 -23 5 -23 5 0 10 13 10 29 0 17 5 33 10 36 6 4 8 15 5 25
-5 15 0 20 22 23 l28 4 -26 2 c-17 0 -33 11 -44 27 -18 28 -14 57 8 48 8 -3
17 1 20 9 4 11 -7 16 -46 21 -29 3 -65 6 -82 6 -27 0 -30 4 -33 33 -5 53 -6
79 -4 140 l2 57 34 0 c18 0 61 3 95 7 59 6 62 7 58 30 -5 27 10 30 30 6 13
-17 14 -16 10 5 -4 14 0 22 9 22 8 0 15 -4 15 -10 1 -5 2 -14 3 -20 2 -20 19
-15 21 6 2 30 -19 56 -39 48 -9 -3 -16 -10 -16 -15 0 -14 -26 -10 -40 6 -10
12 -10 15 1 15 8 0 3 9 -11 20 -22 17 -23 19 -7 25 9 4 28 0 41 -9 21 -13 25
-13 30 -1 3 8 0 18 -6 21 -8 5 -5 10 8 15 14 6 10 8 -18 8 -38 1 -59 18 -38
31 6 4 11 11 10 16 -3 16 -33 44 -47 44 -7 0 -12 4 -11 10 2 5 -31 46 -72 91
-80 88 -80 88 -83 166 -3 72 11 84 98 84 l68 1 113 -113 c107 -107 113 -111
119 -87 l7 26 404 -3 c222 -1 404 -1 404 1 0 2 -16 28 -35 58 -19 30 -35 59
-35 65 0 5 42 7 105 5 102 -5 154 -15 156 -31 0 -5 2 -26 4 -48 4 -48 -4 -87
-16 -79 -5 3 -9 -4 -9 -16 0 -12 5 -18 10 -15 6 3 10 4 10 1 0 -5 -21 -56 -26
-64 -1 -2 -20 8 -41 22 l-38 26 -3 -410 c-2 -402 -3 -410 -22 -410 -11 0 -20
-3 -20 -7 0 -4 48 -56 107 -116 84 -84 104 -110 93 -117 -12 -7 -12 -12 -2
-22 14 -14 16 -54 2 -63 -5 -3 -7 -19 -4 -34 8 -36 -16 -51 -80 -51 -37 0 -55
7 -93 36 -38 29 -53 35 -79 31 -17 -3 -36 -1 -42 5 -5 5 -64 11 -131 11 -67 1
-121 5 -121 10 0 12 -18 8 -34 -9 -9 -8 -16 -31 -16 -50 0 -33 -1 -34 -32 -29
-18 4 -34 8 -36 10 -2 2 -14 0 -26 -5 -13 -4 -29 -4 -36 0 -8 5 -22 4 -32 -1
-29 -16 -68 0 -68 27 0 17 -8 27 -26 34 -33 13 -74 13 -74 0 0 -6 -10 -5 -26
2 -18 8 -27 9 -32 1 -4 -6 -22 -9 -39 -8 -18 1 -33 -1 -33 -6 0 -5 -8 -9 -17
-9 -15 0 -16 2 -3 10 12 7 11 10 -5 16 -11 5 -20 3 -23 -4 -2 -7 -8 -9 -14 -6
-6 4 -14 1 -18 -7 -7 -10 -11 -10 -24 0 -13 11 -16 11 -16 -2 0 -12 -17 -17
-77 -22 -100 -8 -96 -7 -78 -32 l16 -22 682 2 682 2 5 83 5 83 84 -85 85 -85
-85 -3 -84 -3 -3 -650 c-2 -357 0 -675 4 -705 l6 -55 14 45 c11 37 39 71 168
200 149 148 156 153 171 135 27 -36 29 -65 6 -96 -27 -37 -61 -114 -61 -140 0
-11 11 -31 24 -44 l24 -24 -88 -85 c-48 -47 -92 -86 -98 -86 -6 0 -9 -7 -6
-15 5 -12 24 -15 83 -15 59 0 83 -5 106 -20 l30 -20 -29 0 c-42 0 -26 -10 24
-15 23 -2 55 -7 72 -10 l30 -7 -7 41 -7 41 531 0 531 0 0 765 0 765 -534 0
-533 0 23 117 c19 90 21 118 12 124 -7 5 -16 3 -19 -3 -5 -8 -16 -7 -40 2 -55
23 -99 75 -99 118 0 11 -7 22 -15 26 -9 3 -15 18 -15 38 0 18 -3 49 -6 69 l-6
36 -91 -19 c-50 -10 -95 -17 -100 -15 -5 1 35 32 88 67 l98 64 -7 112 c-7 124
-4 144 25 137 17 -5 19 -15 19 -114 l0 -109 25 16 c20 13 25 25 25 55 0 22 -4
39 -10 39 -5 0 -10 24 -10 53 l-1 52 -179 119 -180 120 0 213 0 213 210 0
c116 0 210 -3 210 -6 0 -3 -13 -25 -30 -49 -16 -24 -30 -46 -30 -48 0 -3 11
-8 25 -11 14 -4 25 -13 25 -21 0 -17 30 -34 47 -28 7 3 20 -2 28 -10 22 -23
126 -28 453 -25 l292 3 -65 98 -65 97 215 0 215 0 0 765 0 765 -765 0 -765 0
-2 -210 -3 -209 -93 60 c-51 34 -95 59 -98 57 -2 -3 -3 -213 -2 -466 l3 -462
98 65 97 65 0 -215 0 -215 -215 0 -214 0 -32 48 c-18 26 -35 49 -38 52 -3 3
-12 17 -20 33 -16 30 -45 36 -55 11 -5 -14 -18 -15 -91 -9 -61 5 -90 3 -100
-5 -15 -12 -75 1 -103 23 -7 5 -38 10 -69 10 -45 0 -60 -4 -70 -19 -6 -10 -19
-28 -28 -39 l-16 -20 5 20 c3 11 8 37 12 59 6 36 5 38 -15 31 -15 -5 -23 -1
-28 12 -4 10 -15 24 -25 31 -10 7 -18 19 -18 25 0 7 -20 29 -45 50 -34 29 -45
46 -45 67 0 17 -7 33 -17 39 -15 8 -15 13 -5 36 7 14 12 37 12 51 0 20 -4 23
-22 19 -44 -10 -271 -55 -279 -55 -5 0 -9 239 -9 530 l0 530 -765 0 -765 0 0
-530z m625 445 c213 -2 335 -11 335 -24 0 -3 15 -7 33 -8 51 -2 110 -17 110
-28 -1 -5 6 -19 14 -30 13 -19 15 -19 28 -2 13 19 32 7 20 -13 -3 -5 -1 -10 4
-10 6 0 11 -9 11 -20 0 -16 7 -20 34 -20 19 0 36 4 38 10 2 6 9 6 18 0 12 -8
13 -13 3 -29 -14 -22 -2 -37 22 -27 9 3 15 -1 15 -9 0 -8 -7 -15 -15 -15 -19
0 -19 -14 1 -30 13 -11 16 -10 21 8 3 12 9 22 14 22 15 0 10 -34 -11 -68 -24
-40 -25 -42 -2 -42 10 -1 6 -6 -13 -14 -19 -8 -25 -15 -17 -20 7 -4 12 -16 12
-27 0 -10 5 -19 10 -19 6 0 10 5 10 10 0 6 5 10 10 10 6 0 10 -18 10 -40 0
-25 5 -40 13 -41 15 -1 -32 -17 -55 -18 -10 -1 -18 6 -18 15 0 13 -3 14 -15 4
-8 -6 -19 -9 -24 -5 -6 3 -18 -3 -28 -15 -20 -24 -33 -26 -33 -6 0 21 -21 31
-30 16 -10 -15 -73 -6 -93 14 -7 7 -23 17 -35 20 -18 6 -22 3 -22 -13 0 -32
-27 -25 -39 9 -5 17 -16 30 -23 30 -7 0 -1 8 15 18 28 17 35 36 17 47 -5 3
-10 -3 -10 -14 0 -19 -6 -21 -51 -21 -41 0 -49 -3 -41 -13 17 -20 -69 -37
-143 -27 l-60 7 48 2 c26 0 47 6 47 11 0 14 -86 13 -109 -2 -15 -9 -23 -9 -35
1 -9 7 -13 17 -10 22 3 5 -3 12 -12 16 -10 4 -19 2 -22 -5 -5 -15 -32 -3 -32
14 0 8 -6 17 -14 20 -8 3 -17 16 -20 29 -3 13 -20 33 -36 45 -19 13 -30 30
-30 45 0 12 -7 26 -16 29 -10 4 -15 16 -13 33 3 35 -20 73 -44 73 -22 0 -35
29 -17 40 17 10 3 31 -18 28 -11 -2 -18 5 -20 21 -4 23 -2 24 45 16 26 -4 147
-8 268 -10z m3885 -5 c15 0 22 -41 9 -56 -9 -11 -9 -18 -1 -26 17 -17 15 -55
-4 -62 -33 -12 -73 -6 -84 13 -11 22 -4 51 13 51 7 0 7 4 -1 12 -20 20 -14 58
11 68 12 5 28 7 35 4 8 -2 17 -4 22 -4z m-3095 -559 c39 -6 40 -7 42 -51 1
-25 3 -75 6 -112 l4 -66 -41 -6 c-23 -4 -53 -7 -68 -7 -30 0 -35 -8 -16 -27 9
-9 9 -12 0 -12 -7 0 -12 5 -12 11 0 6 -10 9 -22 7 -29 -4 -38 -38 -10 -38 11
0 25 -7 33 -16 12 -14 14 -13 21 7 6 14 12 19 18 13 6 -6 6 -21 -2 -42 -14
-36 0 -36 -181 0 -99 19 -112 25 -150 60 -38 35 -46 38 -99 38 -57 0 -58 0
-58 -29 0 -32 -14 -41 -65 -41 -24 0 -38 6 -45 20 -15 27 -96 29 -103 3 -3
-12 -5 -8 -6 9 0 15 -4 29 -8 31 -5 3 -129 8 -278 12 -168 5 -272 11 -277 18
-3 6 -1 19 5 30 9 15 9 21 0 24 -10 3 -10 10 -2 24 5 11 7 25 3 31 -5 8 -2 9
9 5 10 -3 17 -2 17 3 0 6 -5 10 -11 10 -14 0 -2 52 14 62 7 4 3 10 -13 16 -24
9 522 21 964 22 116 0 212 2 214 4 4 4 24 2 117 -13z m-718 -317 c-3 -3 -12
-4 -19 -1 -8 3 -5 6 6 6 11 1 17 -2 13 -5z m46 -31 c-13 -2 -35 -2 -50 0 -16
2 -5 4 22 4 28 0 40 -2 28 -4z m-95 -15 c-3 -7 -13 -13 -23 -13 -10 0 -20 6
-22 13 -3 7 5 12 22 12 17 0 25 -5 23 -12z m290 -70 c3 -15 -4 -18 -37 -18
-43 0 -50 7 -29 28 18 18 62 11 66 -10z m30 -67 c-15 -5 -18 3 -11 29 l7 25 6
-25 c3 -14 2 -27 -2 -29z m37 -168 c-3 -13 2 -37 10 -53 24 -46 12 -36 -27 23
-28 41 -34 57 -26 71 9 17 11 17 29 0 14 -12 18 -26 14 -41z m-458 -14 c-12
-20 -37 -26 -37 -10 0 24 13 38 30 34 16 -4 17 -8 7 -24z m1190 -685 c-3 -3
-12 -4 -19 -1 -8 3 -5 6 6 6 11 1 17 -2 13 -5z m-22 -134 c3 -5 1 -10 -4 -10
-6 0 -11 5 -11 10 0 6 2 10 4 10 3 0 8 -4 11 -10z m1642 -1042 c80 -80 100
-106 93 -118 -20 -32 -11 -72 25 -106 l35 -33 0 -116 0 -117 -79 83 c-70 72
-79 86 -74 111 13 64 -46 125 -109 113 -30 -6 -38 -1 -89 52 -31 32 -57 65
-58 73 -1 8 -3 32 -5 54 -5 49 12 99 30 92 7 -3 16 -1 19 4 4 6 30 10 58 10
l52 0 102 -102z m536 92 c30 0 39 -5 47 -24 9 -25 52 -38 86 -26 10 4 45 1 79
-6 33 -7 74 -16 90 -19 17 -4 40 -12 53 -18 18 -9 25 -8 32 3 14 22 23 4 10
-19 -10 -19 -7 -25 11 -23 3 1 6 -5 6 -13 0 -8 -4 -12 -9 -9 -13 8 -9 -10 8
-34 8 -12 11 -22 5 -22 -5 0 -11 6 -14 13 -6 16 -13 8 -21 -25 -4 -17 -1 -32
9 -42 21 -20 20 -43 0 -26 -12 10 -19 10 -27 2 -9 -9 -7 -17 8 -33 19 -21 19
-21 -9 -18 -28 4 -29 2 -33 -45 -4 -56 -14 -75 -14 -28 0 41 -9 62 -27 62 -11
0 -10 6 6 26 49 62 4 154 -74 154 -83 0 -127 -105 -69 -163 24 -24 25 -28 13
-61 -14 -40 -34 -47 -42 -16 -4 14 -14 20 -35 20 l-30 0 -7 -147 -8 -148 -38
187 -38 187 29 30 c41 41 41 91 1 132 -40 40 -88 40 -130 0 -43 -40 -43 -88 0
-130 l30 -31 -38 -191 -38 -191 -69 176 -69 176 27 26 c30 31 35 86 11 121
-18 26 -77 47 -105 38 -22 -7 -22 -8 1 86 l9 37 90 -3 c79 -2 90 0 95 16 5 14
19 19 58 22 29 2 61 2 72 0 11 -1 37 -3 58 -3z m627 -50 c19 -12 4 -27 -29
-32 -14 -1 -26 -9 -29 -17 -3 -9 0 -11 7 -6 21 12 58 -4 64 -27 17 -64 -73
-94 -102 -34 -19 41 -1 101 37 114 35 13 34 13 52 2z m-666 -136 c21 -21 20
-37 -3 -58 -40 -36 -91 15 -55 55 21 23 37 24 58 3z m-280 -46 c15 -24 -3 -52
-37 -56 -33 -4 -53 28 -37 59 14 25 58 23 74 -3z m564 -4 c27 -19 28 -36 3
-58 -40 -36 -91 15 -55 55 21 23 24 23 52 3z m-838 -109 c20 -24 -3 -65 -35
-65 -32 0 -55 41 -35 65 7 8 23 15 35 15 12 0 28 -7 35 -15z m1125 -5 c9 -29
-12 -60 -40 -60 -31 0 -50 32 -35 60 15 27 66 27 75 0z m-269 -37 c-11 -11
-19 6 -11 24 8 17 8 17 12 0 3 -10 2 -21 -1 -24z m-296 -199 c16 -82 32 -159
35 -171 5 -22 3 -23 -70 -23 -73 0 -75 1 -70 23 8 32 65 319 65 325 0 3 2 3 5
0 3 -2 18 -72 35 -154z m-225 -48 c30 -77 54 -141 52 -142 -1 -1 -30 -6 -65
-10 l-62 -7 1 169 c0 109 4 162 9 149 5 -11 34 -83 65 -159z m452 -152 c-1 -2
-30 0 -64 4 l-61 7 61 151 62 152 3 -156 c1 -85 1 -156 -1 -158z m-612 26 l24
-38 -55 -7 c-31 -4 -57 -5 -58 -3 -4 5 -36 205 -36 225 0 16 29 -25 125 -177z
m807 60 l-18 -105 -49 3 c-28 2 -52 5 -54 7 -2 3 27 54 65 114 38 61 70 105
71 98 2 -7 -5 -59 -15 -117z m-772 43 l0 -57 -28 45 c-15 24 -31 50 -36 57 -5
9 3 12 28 12 l36 0 0 -57z m-197 -53 c24 -143 33 -130 -83 -130 -60 0 -100 4
-100 10 0 6 4 10 9 10 6 0 4 12 -3 26 -14 26 -11 64 5 64 12 0 12 27 0 32 -6
2 -7 22 -4 46 l6 42 77 0 77 0 16 -100z m850 -140 c48 -7 87 -16 87 -20 0 -4
-15 -23 -32 -44 l-33 -36 -85 10 c-108 13 -428 13 -545 0 l-90 -10 -32 37
c-18 20 -33 40 -33 44 0 7 53 16 180 30 103 10 476 3 583 -11z m-78 -139 l60
-6 3 -37 3 -38 -48 8 c-62 9 -459 9 -540 0 l-63 -8 0 40 0 39 53 4 c90 6 469
5 532 -2z m-20 -121 c121 -14 125 -16 125 -51 0 -16 6 -38 12 -49 8 -13 9 -23
3 -29 -27 -26 -403 -39 -620 -21 -136 12 -155 16 -155 35 0 31 33 95 52 101
72 22 429 31 583 14z m-125 -255 c0 -38 -3 -45 -19 -45 -11 0 -21 -5 -23 -12
-3 -9 -17 -8 -54 4 -38 12 -50 13 -52 3 -3 -11 -28 -13 -74 -6 -5 1 -8 24 -8
51 l0 50 115 0 115 0 0 -45z m0 -65 c0 -5 -5 -10 -11 -10 -5 0 -7 5 -4 10 3 6
8 10 11 10 2 0 4 -4 4 -10z"/>
<path d="M8875 11950 c-3 -5 -1 -10 4 -10 6 0 11 5 11 10 0 6 -2 10 -4 10 -3
0 -8 -4 -11 -10z"/>
<path d="M8896 11831 c-7 -11 3 -41 13 -41 3 0 12 9 18 19 10 16 9 20 -3 25
-20 8 -22 8 -28 -3z"/>
<path d="M8230 11810 c0 -5 5 -10 11 -10 5 0 7 5 4 10 -3 6 -8 10 -11 10 -2 0
-4 -4 -4 -10z"/>
<path d="M8867 11783 c-13 -12 -7 -33 8 -33 8 0 15 9 15 20 0 20 -11 26 -23
13z"/>
<path d="M8907 11726 c-4 -11 2 -20 23 -31 37 -19 40 -19 40 5 0 13 -5 18 -15
13 -9 -3 -22 2 -29 12 -12 16 -13 16 -19 1z"/>
<path d="M8870 11715 c0 -8 5 -15 10 -15 6 0 10 7 10 15 0 8 -4 15 -10 15 -5
0 -10 -7 -10 -15z"/>
<path d="M12115 12119 c-10 -15 1 -23 20 -15 9 3 13 10 10 16 -8 13 -22 13
-30 -1z"/>
<path d="M12112 12043 c2 -10 10 -18 18 -18 22 0 18 29 -3 33 -14 3 -18 -1
-15 -15z"/>
<path d="M12110 8991 c0 -15 6 -21 21 -21 25 0 22 33 -4 38 -12 2 -17 -3 -17
-17z"/>
<path d="M6486 11225 c-3 -8 -1 -15 4 -15 6 0 10 7 10 15 0 8 -2 15 -4 15 -2
0 -6 -7 -10 -15z"/>
<path d="M9930 10900 c-13 -9 -13 -10 0 -10 8 0 22 5 30 10 13 9 13 10 0 10
-8 0 -22 -5 -30 -10z"/>
<path d="M7660 10749 c0 -5 5 -7 10 -4 6 3 10 8 10 11 0 2 -4 4 -10 4 -5 0
-10 -5 -10 -11z"/>
<path d="M5988 10723 c6 -2 18 -2 25 0 6 3 1 5 -13 5 -14 0 -19 -2 -12 -5z"/>
<path d="M7553 10690 c32 -4 60 -10 63 -13 3 -2 8 -37 11 -76 5 -63 3 -74 -14
-94 -22 -24 -34 -71 -38 -154 -2 -28 -6 -57 -10 -62 -3 -6 1 -11 9 -11 9 0 16
-4 16 -10 0 -5 -4 -10 -9 -10 -11 0 -7 -172 4 -190 3 -5 14 -10 23 -10 15 0
17 -14 19 -114 1 -111 0 -115 -20 -118 -22 -3 -22 -6 -20 -148 2 -136 7 -207
15 -255 5 -27 27 -65 38 -65 10 0 13 960 3 1193 l-6 147 -71 -1 -71 -2 58 -7z"/>
<path d="M8558 10619 c34 -7 52 -16 52 -25 0 -11 7 -13 28 -8 32 8 47 20 35
27 -5 3 -45 8 -89 11 -75 5 -76 5 -26 -5z"/>
<path d="M12080 10583 c0 -5 11 -13 24 -19 20 -9 26 -9 30 3 9 22 8 23 -24 23
-16 0 -30 -3 -30 -7z"/>
<path d="M12153 10532 c-14 -34 -32 -62 -40 -62 -7 0 -13 -4 -13 -10 0 -5 7
-10 16 -10 16 0 81 126 70 137 -3 4 -18 -21 -33 -55z"/>
<path d="M8363 10535 c-26 -18 -47 -77 -38 -106 4 -12 19 -33 33 -45 l25 -24
-38 -190 c-21 -105 -40 -188 -43 -185 -3 2 -35 82 -72 176 l-68 172 24 21 c14
12 27 37 30 57 5 28 1 41 -20 66 -51 60 -133 49 -156 -22 -14 -43 -6 -72 32
-107 l28 -26 -2 -183 -3 -182 -87 136 -87 137 15 35 c27 65 -12 126 -81 128
-30 1 -43 -5 -66 -31 -39 -43 -38 -84 0 -123 16 -16 40 -29 53 -29 22 0 24 -7
59 -215 33 -194 39 -218 65 -251 84 -106 90 -125 49 -178 -14 -18 -25 -38 -25
-44 0 -6 -8 -24 -17 -41 -16 -28 -17 -33 -3 -58 9 -16 27 -33 41 -40 46 -22
284 -36 504 -29 240 7 303 16 322 42 15 21 17 80 3 89 -5 3 -10 19 -10 34 0
16 -9 40 -20 54 -35 45 -28 68 53 170 25 32 32 58 64 251 36 212 37 216 60
216 33 0 83 51 83 85 0 37 -26 82 -52 91 -89 28 -164 -47 -124 -125 16 -30 16
-30 -72 -167 l-87 -137 -3 174 -3 174 25 20 c63 51 50 144 -23 166 -96 29
-159 -84 -87 -156 l23 -23 -71 -173 -70 -173 -40 197 -39 197 25 24 c34 31 44
76 24 115 -27 51 -88 67 -133 36z m81 -51 c21 -21 20 -37 -3 -58 -40 -36 -91
15 -55 55 21 23 37 24 58 3z m-280 -46 c15 -24 -3 -52 -37 -56 -33 -4 -53 28
-37 59 14 25 58 23 74 -3z m564 -4 c27 -19 28 -36 3 -58 -40 -36 -91 15 -55
55 21 23 24 23 52 3z m-838 -109 c20 -24 -3 -65 -35 -65 -32 0 -55 41 -35 65
7 8 23 15 35 15 12 0 28 -7 35 -15z m1125 -5 c9 -29 -12 -60 -40 -60 -31 0
-50 32 -35 60 15 27 66 27 75 0z m-565 -236 c16 -82 32 -159 35 -171 5 -22 3
-23 -70 -23 -73 0 -75 1 -70 23 8 32 65 319 65 325 0 3 2 3 5 0 3 -2 18 -72
35 -154z m-225 -48 c30 -77 54 -141 52 -142 -1 -1 -30 -6 -65 -10 l-62 -7 1
169 c0 109 4 162 9 149 5 -11 34 -83 65 -159z m452 -153 c-3 -2 -32 0 -65 4
l-60 8 61 151 62 152 3 -156 c1 -85 1 -157 -1 -159z m-612 27 l24 -38 -55 -7
c-31 -4 -57 -5 -58 -3 -4 5 -36 205 -36 225 0 16 29 -25 125 -177z m807 60
l-18 -105 -49 3 c-28 2 -52 5 -54 7 -2 3 27 54 65 114 38 61 70 105 71 98 2
-7 -5 -59 -15 -117z m-119 -150 c48 -7 87 -16 87 -20 0 -4 -15 -23 -32 -44
l-33 -36 -85 10 c-108 13 -428 13 -545 0 l-90 -10 -32 37 c-18 20 -33 40 -33
44 0 7 53 16 180 30 103 10 476 3 583 -11z m-78 -139 l60 -6 3 -37 3 -38 -48
8 c-62 9 -459 9 -540 0 l-63 -8 0 40 0 39 53 4 c90 6 469 5 532 -2z m-20 -121
c121 -14 125 -16 125 -51 0 -16 6 -38 12 -49 8 -13 9 -23 3 -29 -27 -26 -403
-39 -620 -21 -136 12 -155 16 -155 35 0 31 33 95 52 101 72 22 429 31 583 14z"/>
<path d="M3950 10283 c0 -35 0 -36 20 -18 11 10 20 19 20 19 0 1 -9 9 -20 19
-19 16 -20 16 -20 -20z"/>
<path d="M4220 10106 c0 -9 5 -16 10 -16 6 0 10 4 10 9 0 6 -4 13 -10 16 -5 3
-10 -1 -10 -9z"/>
<path d="M4353 10095 c-3 -9 -3 -18 0 -21 9 -9 27 6 27 22 0 19 -19 18 -27 -1z"/>
<path d="M4160 10080 c0 -5 5 -10 10 -10 6 0 10 5 10 10 0 6 -4 10 -10 10 -5
0 -10 -4 -10 -10z"/>
<path d="M3948 9668 c-1 -84 -2 -166 -1 -183 2 -82 8 -135 15 -135 21 0 58 50
59 81 2 31 2 32 6 6 5 -32 26 -31 31 1 4 25 22 30 22 7 0 -8 5 -15 11 -15 7 0
8 14 4 39 -7 40 9 67 21 37 9 -23 23 -19 36 10 8 17 18 24 30 21 10 -3 18 -1
18 3 0 5 8 16 17 26 16 15 16 17 -1 29 -12 9 -15 20 -10 40 5 21 4 27 -7 23
-9 -3 -14 -21 -14 -51 0 -26 -3 -47 -6 -47 -9 0 -19 39 -19 73 0 15 -3 27 -8
27 -4 0 -13 10 -21 21 -10 17 -10 23 0 29 9 6 8 12 -4 25 -16 15 -17 15 -17
-4 0 -28 -28 -27 -32 2 -2 16 -11 23 -30 25 -24 3 -28 8 -28 33 0 27 -3 29
-35 29 l-35 0 -2 -152z m122 -133 c13 -16 6 -35 -15 -35 -18 0 -28 17 -21 35
7 19 20 19 36 0z m-75 -104 c3 -5 1 -12 -5 -16 -5 -3 -10 1 -10 9 0 18 6 21
15 7z"/>
<path d="M9370 9760 c0 -5 7 -10 16 -10 8 0 12 5 9 10 -3 6 -10 10 -16 10 -5
0 -9 -4 -9 -10z"/>
<path d="M11062 9690 c0 -19 2 -27 5 -17 2 9 2 25 0 35 -3 9 -5 1 -5 -18z"/>
<path d="M9390 9632 c0 -14 11 -21 26 -15 8 3 11 9 8 14 -7 11 -34 12 -34 1z"/>
<path d="M4266 9614 c-21 -21 -18 -24 17 -17 15 3 26 10 24 16 -6 18 -24 19
-41 1z"/>
<path d="M11167 9590 c-17 -24 -17 -25 3 -28 17 -3 20 -11 20 -48 0 -37 3 -44
19 -44 32 0 37 38 8 68 -14 15 -27 38 -29 52 l-3 25 -18 -25z"/>
<path d="M9465 9590 c-3 -5 -1 -10 4 -10 6 0 11 5 11 10 0 6 -2 10 -4 10 -3 0
-8 -4 -11 -10z"/>
<path d="M11131 9574 c0 -11 3 -14 6 -6 3 7 2 16 -1 19 -3 4 -6 -2 -5 -13z"/>
<path d="M4251 9544 c0 -11 3 -14 6 -6 3 7 2 16 -1 19 -3 4 -6 -2 -5 -13z"/>
<path d="M4290 9545 c0 -18 37 -48 52 -42 8 4 7 6 -4 6 -20 1 -24 27 -5 34 6
2 0 6 -15 9 -18 3 -28 1 -28 -7z"/>
<path d="M9540 9539 c0 -5 5 -7 10 -4 6 3 10 8 10 11 0 2 -4 4 -10 4 -5 0 -10
-5 -10 -11z"/>
<path d="M4173 9484 c-16 -14 -35 -23 -45 -21 -20 6 -23 -4 -7 -20 8 -8 16 -6
30 8 10 10 30 19 44 19 18 0 25 5 25 20 0 27 -13 25 -47 -6z"/>
<path d="M4285 9469 c-4 -6 -5 -12 -2 -15 2 -3 7 2 10 11 7 17 1 20 -8 4z"/>
<path d="M4027 9380 c-3 -13 0 -20 9 -20 8 0 14 9 14 20 0 11 -4 20 -9 20 -5
0 -11 -9 -14 -20z"/>
<path d="M6556 9222 c-2 -2 -54 -5 -115 -7 -61 -2 -119 -9 -129 -14 -21 -12
-39 -11 240 -17 119 -2 209 0 212 5 4 5 4 15 1 23 -4 10 -31 13 -105 14 -55 0
-102 -2 -104 -4z"/>
<path d="M7022 9219 c-13 -5 -22 -15 -19 -21 3 -10 57 -13 226 -13 186 -1 219
1 204 12 -11 9 -42 13 -83 11 -59 -2 -197 6 -275 16 -16 2 -41 0 -53 -5z"/>
<path d="M4742 9168 c-7 -7 -12 -16 -12 -20 0 -5 114 -7 252 -6 232 3 253 4
256 21 3 16 -14 17 -240 17 -177 0 -247 -3 -256 -12z"/>
<path d="M5470 9165 c0 -13 31 -15 219 -15 121 0 226 3 235 6 46 18 -6 23
-219 24 -203 0 -235 -2 -235 -15z"/>
<path d="M7840 9166 c15 -15 452 -14 457 1 3 7 -71 10 -232 10 -165 -1 -232
-4 -225 -11z"/>
<path d="M8540 9170 c-26 -16 15 -20 241 -20 292 -1 268 -3 244 16 -16 12 -59
14 -246 13 -124 0 -232 -5 -239 -9z"/>
<path d="M4600 9154 c0 -14 3 -14 15 -4 8 7 15 14 15 16 0 2 -7 4 -15 4 -8 0
-15 -7 -15 -16z"/>
<path d="M4612 9037 c-21 -23 -22 -30 -21 -263 0 -225 7 -301 21 -262 4 9 25
18 57 22 47 6 50 8 41 27 -8 15 -7 23 5 35 11 11 13 20 6 28 -6 7 -7 23 -4 37
6 21 5 23 -10 10 -15 -11 -17 -11 -17 2 0 8 5 17 12 19 20 7 17 141 -3 164 -9
11 -19 39 -23 64 -9 64 -29 140 -36 140 -4 0 -16 -10 -28 -23z"/>
<path d="M9139 9039 c0 -8 -3 -32 -5 -54 -3 -22 -6 -132 -7 -245 l-2 -205 28
-3 27 -3 0 244 c0 231 -1 245 -20 262 -15 14 -20 15 -21 4z"/>
<path d="M6095 8986 c-13 -19 -16 -48 -15 -128 1 -57 1 -134 0 -171 0 -38 2
-77 5 -87 3 -10 1 -21 -5 -25 -14 -9 6 -45 25 -45 13 0 15 36 15 240 0 132 -2
240 -5 240 -2 0 -12 -11 -20 -24z"/>
<path d="M7653 8768 c2 -237 6 -258 40 -223 17 16 19 88 3 113 -4 7 -3 18 2
25 15 19 23 65 12 69 -12 4 -19 74 -10 107 4 17 1 34 -8 49 -13 19 -13 25 -2
32 10 6 9 13 -6 34 -11 14 -22 26 -26 26 -3 0 -6 -104 -5 -232z"/>
<path d="M7711 8784 c0 -11 3 -14 6 -6 3 7 2 16 -1 19 -3 4 -6 -2 -5 -13z"/>
<path d="M4600 8480 c0 -5 5 -10 10 -10 6 0 10 5 10 10 0 6 -4 10 -10 10 -5 0
-10 -4 -10 -10z"/>
<path d="M4595 8450 c-3 -5 1 -10 9 -10 9 0 16 5 16 10 0 6 -4 10 -9 10 -6 0
-13 -4 -16 -10z"/>
<path d="M4601 8344 c0 -11 3 -14 6 -6 3 7 2 16 -1 19 -3 4 -6 -2 -5 -13z"/>
<path d="M4597 8306 c-12 -30 -8 -476 4 -476 15 0 37 58 43 115 3 27 11 54 16
59 6 6 10 22 10 37 0 15 4 31 10 34 5 3 7 19 4 34 -3 16 -1 38 5 50 10 17 9
22 -4 27 -20 8 -9 24 18 24 20 0 20 1 2 13 -12 10 -16 22 -13 40 6 29 -6 37
-52 37 -16 0 -30 5 -32 12 -3 7 -7 5 -11 -6z"/>
<path d="M6095 8294 c-17 -6 -7 -382 10 -387 11 -2 18 380 7 386 -4 3 -11 3
-17 1z"/>
<path d="M7654 8285 c-4 -9 -4 -64 -1 -123 4 -59 7 -115 7 -125 0 -10 5 -15
10 -12 6 3 7 17 4 31 -3 13 -3 32 1 41 5 10 9 52 11 93 1 41 4 81 6 89 4 21
-31 26 -38 6z"/>
<path d="M9128 8208 c-2 -91 -1 -181 3 -285 2 -37 9 -60 25 -80 l23 -28 1 243
0 242 -25 0 c-25 0 -25 -1 -27 -92z"/>
<path d="M7661 7975 c0 -31 2 -36 9 -23 6 10 7 25 1 40 -9 20 -10 18 -10 -17z"/>
<path d="M6097 7858 c8 -43 13 -48 13 -15 0 15 0 30 1 34 0 4 -4 9 -10 11 -7
2 -9 -8 -4 -30z"/>
<path d="M10721 7734 c0 -11 3 -14 6 -6 3 7 2 16 -1 19 -3 4 -6 -2 -5 -13z"/>
<path d="M4908 7673 c-34 -9 -17 -20 27 -18 45 2 78 15 37 15 -11 0 -26 2 -34
4 -7 2 -21 2 -30 -1z"/>
<path d="M5123 7668 c-2 -5 15 -8 38 -8 23 0 39 3 35 8 -4 4 -21 7 -38 7 -16
0 -32 -3 -35 -7z"/>
<path d="M8540 7669 c0 -5 11 -10 25 -10 14 -1 30 -2 35 -3 6 -1 10 3 10 9 0
5 -16 10 -35 12 -19 1 -35 -2 -35 -8z"/>
<path d="M8785 7670 c-3 -5 -1 -10 4 -10 6 0 11 5 11 10 0 6 -2 10 -4 10 -3 0
-8 -4 -11 -10z"/>
<path d="M8840 7670 c-19 -6 -12 -8 29 -9 30 -1 52 1 50 3 -11 9 -57 13 -79 6z"/>
<path d="M4793 7663 c9 -2 23 -2 30 0 6 3 -1 5 -18 5 -16 0 -22 -2 -12 -5z"/>
<path d="M4848 7663 c6 -2 18 -2 25 0 6 3 1 5 -13 5 -14 0 -19 -2 -12 -5z"/>
<path d="M5038 7663 c7 -3 16 -2 19 1 4 3 -2 6 -13 5 -11 0 -14 -3 -6 -6z"/>
<path d="M5488 7663 c6 -2 18 -2 25 0 6 3 1 5 -13 5 -14 0 -19 -2 -12 -5z"/>
<path d="M8634 7663 c7 -7 77 -5 85 2 2 3 -17 5 -44 5 -27 0 -45 -3 -41 -7z"/>
<path d="M8738 7663 c7 -3 16 -2 19 1 4 3 -2 6 -13 5 -11 0 -14 -3 -6 -6z"/>
<path d="M10838 7663 c7 -3 16 -2 19 1 4 3 -2 6 -13 5 -11 0 -14 -3 -6 -6z"/>
<path d="M3208 7635 c-7 -9 -19 -22 -25 -30 -19 -21 -16 -27 8 -15 13 7 110
13 260 15 131 2 243 6 249 10 5 3 10 13 10 21 0 22 -483 21 -502 -1z"/>
<path d="M3940 7635 c0 -14 47 -22 100 -17 8 1 87 2 175 3 170 1 207 5 184 20
-8 5 -114 9 -236 9 -192 0 -223 -2 -223 -15z"/>
<path d="M9360 7640 c0 -16 32 -19 211 -20 101 0 191 -1 199 -2 39 -3 60 3 60
18 0 13 -28 15 -235 13 -129 -1 -235 -5 -235 -9z"/>
<path d="M10060 7636 c0 -8 4 -18 10 -21 5 -3 101 -8 214 -11 l204 -5 28 25
29 25 -242 1 c-205 0 -243 -2 -243 -14z"/>
<path d="M3070 7613 l0 -26 23 20 c12 12 36 23 52 26 19 2 11 5 -22 6 -51 1
-53 0 -53 -26z"/>
<path d="M10600 7633 c62 -9 68 -13 76 -45 4 -18 7 -55 5 -83 -2 -49 -4 -52
-112 -161 -108 -109 -110 -111 -84 -118 22 -6 26 -11 21 -29 -3 -12 -6 -163
-6 -334 0 -306 0 -313 -20 -313 -11 0 -20 -4 -20 -8 0 -5 9 -17 20 -27 14 -13
20 -31 20 -62 0 -47 5 -51 36 -29 19 14 24 11 74 -39 30 -30 55 -62 57 -72 7
-49 5 -125 -4 -134 -14 -14 -5 -46 14 -54 24 -8 27 -1 33 81 l5 75 60 -60 c40
-40 71 -63 93 -67 70 -14 19 -36 -88 -38 l-65 -1 2 -80 1 -79 -80 -83 c-45
-45 -85 -80 -90 -77 -5 3 -25 6 -44 6 -68 0 -111 -71 -80 -131 16 -30 16 -30
-72 -167 l-87 -137 -3 174 -3 174 25 20 c63 51 50 144 -23 166 -96 29 -159
-84 -87 -156 l23 -23 -71 -173 -70 -173 -40 197 -39 197 25 24 c57 52 40 135
-30 157 -52 15 -96 -6 -112 -56 -14 -42 -6 -70 28 -101 l25 -24 -38 -190 c-21
-105 -40 -188 -43 -185 -3 2 -35 82 -72 176 l-68 172 24 21 c14 12 27 37 30
57 5 28 1 41 -21 67 -50 60 -141 37 -160 -40 -8 -31 7 -65 41 -94 l24 -20 -2
-184 -3 -183 -87 136 -87 137 15 35 c27 65 -12 126 -81 128 -30 1 -43 -5 -66
-31 -39 -43 -38 -84 0 -123 16 -16 40 -29 53 -29 22 0 24 -7 59 -215 33 -194
39 -218 65 -251 84 -106 90 -125 49 -178 -14 -18 -25 -38 -25 -44 0 -6 -8 -24
-17 -41 -16 -28 -17 -33 -3 -58 9 -16 27 -33 41 -40 46 -22 284 -36 504 -29
240 7 303 16 322 42 15 21 17 80 3 89 -5 3 -10 19 -10 34 0 16 -9 40 -20 54
-35 45 -28 68 53 170 25 32 32 58 64 251 20 119 40 216 45 216 4 0 8 -135 8
-301 0 -297 0 -301 -21 -306 -18 -5 -4 -23 100 -127 l121 -121 3 -85 2 -84 55
-2 c98 -3 100 -3 93 -20 -4 -10 1 -17 16 -21 32 -8 27 -39 -8 -46 -15 -3 -38
-3 -50 0 -17 4 -33 -4 -66 -37 l-44 -43 -3 79 -3 79 -280 2 c-154 2 -345 -1
-425 -6 l-145 -8 103 -2 c81 -1 102 -4 102 -15 0 -8 5 -18 11 -22 6 -3 98 -8
204 -10 180 -4 194 -3 218 16 29 23 38 24 106 9 48 -10 50 -12 56 -51 16 -94
10 -118 -44 -172 l-51 -50 -30 17 -30 18 0 -47 c0 -35 -6 -54 -22 -71 l-22
-24 22 -6 c18 -4 22 -12 22 -49 0 -24 -4 -44 -8 -44 -5 0 -8 -23 -7 -51 l1
-50 -42 6 c-32 4 -43 2 -48 -10 -4 -12 5 -15 49 -15 l55 0 0 -124 0 -124 -212
-1 c-117 -1 -214 -4 -216 -6 -3 -2 -7 -126 -10 -274 l-5 -271 -33 -6 c-18 -3
-37 -3 -43 1 -6 3 -11 1 -11 -5 0 -6 -10 -8 -24 -4 -18 4 -25 1 -29 -13 -4
-14 -5 -15 -6 -2 -1 21 -48 20 -56 -1 -16 -41 -25 30 -25 202 0 103 -4 189 -8
192 -6 4 -190 -169 -395 -372 -51 -51 -57 -54 -113 -57 -32 -2 -66 -2 -76 1
-16 5 -34 49 -28 69 1 6 2 28 1 50 0 22 3 45 7 52 5 8 369 388 418 436 4 4 0
7 -9 7 -10 0 -17 -7 -17 -15 0 -19 -46 -20 -57 -1 -6 10 -46 15 -158 20 -82 4
-154 11 -159 17 -6 6 -6 9 0 9 5 0 10 18 11 40 0 22 -3 40 -7 40 -5 0 -8 29
-7 64 l2 64 90 7 c50 4 93 12 97 18 6 9 8 9 8 0 0 -8 14 -13 37 -13 34 0 35 1
20 18 -10 10 -14 22 -10 26 12 12 -28 36 -61 37 -28 2 -27 3 9 9 l40 7 -47 2
c-44 1 -48 3 -48 25 0 17 7 26 25 30 14 4 25 13 25 22 0 8 -4 13 -9 10 -5 -3
-14 1 -21 9 -7 8 -19 15 -27 15 -13 0 -13 -3 -3 -15 7 -8 19 -15 26 -15 8 0
14 -4 14 -10 0 -18 -26 -11 -54 15 -15 14 -22 25 -15 25 9 0 9 3 0 14 -14 17
-11 37 8 52 13 10 12 12 -5 18 -19 6 -44 48 -44 73 0 7 -4 13 -9 13 -5 0 -12
18 -16 40 -4 22 -14 44 -23 49 -16 9 -15 11 2 24 18 13 18 14 1 21 -12 4 -26
-1 -42 -16 l-25 -23 4 -672 c1 -369 7 -675 11 -680 5 -4 348 -10 763 -11 l754
-4 0 -764 0 -764 -765 0 -765 0 0 748 c0 453 -4 753 -10 762 -8 13 -55 15
-327 15 -312 0 -318 0 -315 -20 2 -11 5 -22 7 -24 2 -2 96 -5 209 -7 195 -3
206 -2 231 18 21 16 35 19 69 15 79 -11 96 -22 97 -64 4 -85 -3 -114 -37 -164
-19 -28 -31 -55 -28 -60 3 -5 2 -15 -2 -21 -5 -7 -10 -33 -12 -58 -2 -25 -8
-49 -13 -55 -5 -5 -9 -17 -9 -26 0 -9 -7 -20 -17 -23 -14 -6 -14 -8 3 -21 24
-17 8 -37 -29 -37 -19 0 -23 -5 -20 -19 3 -11 -1 -21 -11 -25 -19 -7 -22 -44
-3 -44 6 0 18 14 26 32 14 31 14 31 23 9 4 -13 6 -27 3 -32 -3 -4 17 -11 45
-15 49 -6 50 -7 52 -43 1 -20 1 -45 0 -56 -1 -11 -3 -43 -5 -72 -1 -29 -6 -55
-9 -59 -4 -3 -57 -9 -118 -12 -62 -3 -110 -9 -110 -15 0 -5 -13 -7 -30 -4 -19
4 -29 3 -27 -5 4 -20 -21 -19 -28 1 -8 26 -17 26 -32 2 -14 -22 -53 -18 -53 5
0 11 -18 14 -78 14 l-79 0 -6 -142 c-4 -79 -7 -176 -7 -215 l0 -73 -115 0
-115 0 0 113 c0 61 -4 118 -8 124 -5 9 -49 -27 -139 -112 -124 -118 -134 -125
-172 -125 -45 0 -48 -5 -27 -36 14 -19 11 -25 -43 -78 -56 -56 -61 -58 -121
-63 -40 -4 -70 -1 -86 7 -25 14 -32 44 -13 56 8 5 8 8 0 14 -9 5 -9 19 -1 56
11 45 27 65 216 259 l205 210 -198 9 c-109 4 -200 10 -202 12 -2 2 2 15 9 29
11 20 11 27 -1 41 -11 13 -11 18 -1 21 17 7 15 49 -5 68 -13 13 -14 18 -3 25
7 4 10 15 7 24 -5 13 2 16 41 18 26 1 63 3 82 4 19 1 46 3 60 3 l25 1 -24 19
c-18 14 -20 20 -10 23 19 7 49 -10 49 -27 0 -8 7 -15 16 -15 11 0 14 8 12 32
-3 28 -7 32 -38 36 -19 2 -39 10 -43 18 -4 8 -15 14 -22 14 -19 0 -19 12 0 57
8 19 15 39 15 44 0 19 -17 8 -30 -18 l-12 -28 -9 24 c-7 17 -6 27 3 33 9 6 7
10 -10 14 -13 4 -21 12 -19 18 3 6 -4 27 -14 46 -32 61 -37 74 -54 135 -28
103 -26 100 -58 75 l-28 -22 1 -679 2 -679 59 -1 c32 -1 62 -2 67 -3 27 -6 89
-30 96 -37 6 -5 23 -9 38 -9 15 0 28 -4 28 -10 0 -5 5 -10 11 -10 6 0 35 -7
64 -15 36 -11 55 -22 58 -35 3 -10 0 -21 -5 -22 -17 -6 14 -58 35 -58 11 0 26
-8 33 -17 20 -28 25 -10 13 46 -6 29 -9 54 -6 57 2 2 32 -38 67 -91 50 -76 67
-95 86 -95 15 0 24 -6 24 -15 0 -11 12 -15 44 -15 25 0 48 -5 51 -10 3 -6 26
-10 51 -10 28 0 44 -4 44 -12 0 -7 55 69 122 170 l121 182 214 0 213 0 0 -765
0 -765 765 0 765 0 0 215 0 215 243 161 c133 89 246 165 250 169 5 4 -104 84
-242 176 l-251 169 0 213 0 212 215 0 215 0 161 -242 c89 -134 165 -247 169
-251 4 -5 84 104 176 242 l169 251 212 0 213 0 0 765 0 765 -765 0 -765 0 0
215 0 215 243 161 c133 89 246 165 251 169 4 5 -84 70 -198 146 -113 75 -205
138 -204 140 2 1 79 -13 172 -32 93 -19 173 -34 178 -34 4 0 8 16 8 35 0 19
-4 35 -10 35 -5 0 -10 19 -10 43 -1 39 -29 139 -44 154 -3 3 -6 15 -6 25 0 15
-5 17 -25 12 -24 -6 -33 4 -18 20 16 16 9 45 -13 50 -13 4 -35 17 -48 31 -14
14 -39 28 -56 31 -32 7 -40 28 -14 38 27 10 38 7 66 -19 15 -13 45 -27 67 -31
37 -6 41 -9 41 -35 0 -19 5 -29 15 -29 9 0 15 9 15 23 l0 22 20 -25 20 -25 1
25 c1 19 3 20 6 7 5 -21 42 -61 49 -54 2 2 -5 48 -16 102 -11 53 -20 101 -20
106 0 5 227 9 530 9 l530 0 0 765 0 765 -530 0 -530 0 0 23 c1 12 7 51 15 87
8 38 10 66 4 68 -5 2 -1 11 8 20 16 16 15 17 -16 20 -18 2 -35 10 -38 18 -7
19 -29 18 -38 -3 -7 -17 -8 -16 -15 2 -4 11 -4 25 1 31 6 7 3 16 -6 24 -9 8
-30 42 -46 77 -16 35 -35 63 -42 62 -29 -3 -35 3 -41 45 l-7 43 -66 -14 c-37
-7 -71 -12 -76 -10 -5 1 20 22 57 46 56 37 65 47 60 65 -3 11 -10 25 -15 31
-12 13 -11 122 1 130 6 3 10 48 10 99 l0 94 -65 42 c-36 24 -64 44 -63 46 2 1
31 -3 66 -10 51 -11 62 -11 62 0 0 7 -4 15 -9 18 -4 3 -11 36 -14 72 -4 37
-11 72 -17 78 -15 15 -12 36 5 36 8 0 15 9 15 20 0 11 -4 20 -10 20 -5 0 -16
14 -25 30 -9 17 -21 30 -28 30 -6 1 -25 18 -42 39 l-30 39 -32 -31 c-32 -30
-44 -27 -41 13 1 8 0 39 0 68 l-2 52 -62 -1 c-35 -1 -52 -3 -38 -6z m200
-1588 l-55 -56 -3 37 c-4 45 6 56 60 65 24 3 45 7 48 8 2 0 -20 -24 -50 -54z
m758 34 c24 0 32 -4 32 -18 0 -23 31 -52 37 -34 3 9 12 9 29 2 14 -5 47 -9 74
-9 27 0 61 -5 77 -12 15 -6 33 -12 38 -13 6 0 19 -5 30 -9 11 -4 26 -10 33
-12 7 -2 11 -8 7 -13 -3 -5 0 -13 6 -17 8 -5 8 -8 0 -14 -8 -5 -9 -14 -2 -33
8 -22 6 -28 -15 -41 -13 -9 -31 -31 -38 -49 l-14 -32 -1 28 c-1 17 -7 27 -16
27 -11 0 -15 -11 -15 -41 0 -37 -2 -40 -16 -28 -14 11 -18 10 -30 -6 -13 -18
-14 -17 -14 8 0 32 -4 33 -37 7 -14 -11 -36 -20 -49 -20 -17 0 -22 -4 -18 -15
5 -13 2 -14 -21 -5 -15 6 -31 8 -34 4 -3 -3 -7 -236 -9 -517 -2 -282 -6 -515
-10 -518 -4 -4 -46 -10 -94 -13 -77 -6 -87 -5 -82 8 7 19 0 20 -27 6 -19 -11
-19 -3 -19 393 0 451 -5 558 -26 550 -8 -3 -14 0 -14 6 0 7 -10 15 -22 20 -21
7 -27 28 -60 187 -20 98 -35 181 -32 183 2 3 36 4 74 4 64 -1 71 1 75 20 6 21
11 22 88 19 45 -1 97 -3 115 -3z m612 -94 c0 -25 5 -45 10 -45 6 0 10 -7 10
-15 0 -8 -4 -15 -10 -15 -5 0 -10 -7 -10 -15 0 -8 -7 -15 -15 -15 -8 0 -15 7
-15 15 0 10 -11 15 -35 15 -43 0 -44 10 -4 72 42 65 69 66 69 3z m-2196 -91
c21 -21 20 -37 -3 -58 -24 -22 -57 -14 -66 15 -4 13 0 28 11 40 21 23 37 24
58 3z m-280 -46 c15 -24 -3 -52 -37 -56 -33 -4 -53 28 -37 59 14 25 58 23 74
-3z m564 -4 c27 -19 28 -36 3 -58 -40 -36 -91 15 -55 55 21 23 24 23 52 3z
m-838 -109 c20 -24 -3 -65 -35 -65 -32 0 -55 41 -35 65 7 8 23 15 35 15 12 0
28 -7 35 -15z m1118 -13 c7 -48 -51 -73 -67 -29 -13 33 5 59 37 55 19 -2 28
-10 30 -26z m-558 -228 c16 -82 32 -159 35 -171 5 -22 3 -23 -70 -23 -73 0
-75 1 -70 23 8 32 65 319 65 325 0 3 2 3 5 0 3 -2 18 -72 35 -154z m-225 -48
c30 -77 54 -141 52 -142 -1 -1 -30 -6 -65 -10 l-62 -7 1 169 c0 109 4 162 9
149 5 -11 34 -83 65 -159z m452 -153 c-3 -2 -32 0 -65 4 l-60 8 61 151 62 152
3 -156 c1 -85 1 -157 -1 -159z m-612 27 l24 -38 -55 -7 c-31 -4 -57 -5 -58 -3
-4 5 -36 205 -36 225 0 16 29 -25 125 -177z m807 60 l-18 -105 -49 3 c-28 2
-52 5 -54 7 -2 3 27 54 65 114 38 61 70 105 71 98 2 -7 -5 -59 -15 -117z
m-119 -150 c48 -7 87 -16 87 -20 0 -4 -15 -23 -32 -44 l-33 -36 -85 10 c-108
13 -428 13 -545 0 l-90 -10 -32 37 c-18 20 -33 40 -33 44 0 7 53 16 180 30
103 10 476 3 583 -11z m-78 -139 l60 -6 3 -37 3 -38 -48 8 c-62 9 -459 9 -540
0 l-63 -8 0 40 0 39 53 4 c90 6 469 5 532 -2z m-20 -121 c121 -14 125 -16 125
-51 0 -16 6 -38 12 -49 8 -13 9 -23 3 -29 -27 -26 -403 -39 -620 -21 -136 12
-155 16 -155 35 0 31 33 95 52 101 72 22 429 31 583 14z m624 -314 l34 -35
-44 13 c-27 8 -45 20 -47 31 -3 11 0 15 7 11 6 -4 11 -2 11 3 0 16 3 14 39
-23z m-1449 -561 c0 -8 -2 -15 -4 -15 -2 0 -6 7 -10 15 -3 8 -1 15 4 15 6 0
10 -7 10 -15z m90 -90 c0 -8 -7 -15 -15 -15 -16 0 -20 12 -8 23 11 12 23 8 23
-8z m60 -379 c0 -3 -4 -8 -10 -11 -5 -3 -10 -1 -10 4 0 6 5 11 10 11 6 0 10
-2 10 -4z m2070 -636 c6 -4 12 -28 13 -53 2 -26 6 -49 10 -53 3 -4 2 -14 -3
-23 -4 -9 -8 -23 -8 -31 1 -8 0 -185 0 -392 l-2 -378 -50 0 c-28 0 -60 -6 -71
-12 -17 -10 -23 -10 -26 0 -3 6 -18 12 -34 12 -22 0 -29 5 -29 20 0 11 -4 20
-10 20 -6 0 -10 114 -10 323 0 177 -3 351 -6 387 l-6 65 -47 -4 c-25 -2 -51
-7 -58 -13 -7 -6 -14 -5 -18 2 -3 5 -24 10 -46 10 -21 0 -39 5 -39 10 0 6 -7
10 -15 10 -8 0 -14 -5 -12 -11 1 -6 -3 -13 -10 -16 -8 -3 -11 6 -10 24 3 29 9
31 119 33 15 1 30 5 33 10 9 15 45 12 45 -3 0 -8 -10 -13 -21 -13 -32 1 -35
-22 -5 -30 31 -7 60 2 51 16 -3 5 5 14 19 20 21 8 26 16 26 44 l0 34 104 0
c57 -1 109 -4 116 -8z m588 -32 c19 -19 14 -44 -14 -77 l-26 -31 31 0 c21 0
31 -5 31 -15 0 -12 -13 -15 -60 -15 -33 0 -60 3 -60 6 0 4 16 24 35 45 42 47
46 73 10 67 -27 -6 -41 5 -30 22 9 14 68 13 83 -2z m-1098 -52 c0 -3 -4 -8
-10 -11 -5 -3 -10 -1 -10 4 0 6 5 11 10 11 6 0 10 -2 10 -4z m-3233 -421 c-4
-8 -11 -15 -17 -15 -6 0 -6 7 2 20 14 22 24 19 15 -5z m1160 -357 c-3 -7 -5
-2 -5 12 0 14 2 19 5 13 2 -7 2 -19 0 -25z m531 -731 c21 -16 13 -27 -19 -27
-38 0 -91 36 -62 42 24 5 65 -2 81 -15z m27 -48 c-4 -5 -1 -9 4 -9 6 0 11 -4
11 -9 0 -11 -38 -2 -46 11 -7 12 16 29 28 22 5 -3 6 -10 3 -15z m-1145 -48 c0
-5 2 -16 5 -24 4 -10 -1 -13 -17 -11 -13 1 -29 3 -37 3 -11 1 -10 6 4 21 19
21 45 27 45 11z m-3 -57 c-3 -3 -12 -4 -19 -1 -8 3 -5 6 6 6 11 1 17 -2 13 -5z
m2093 -479 l0 -115 -345 0 c-223 0 -345 4 -345 10 0 6 -7 10 -15 10 -8 0 -15
-4 -15 -10 0 -6 -27 -10 -60 -10 -33 0 -60 4 -60 10 0 6 5 10 10 10 6 0 10 23
10 50 0 43 -3 50 -17 48 -14 -2 -19 5 -21 31 -2 19 -1 44 2 57 l6 24 425 0
425 0 0 -115z m-1160 -646 c0 -81 -14 -102 -68 -97 -19 2 -37 9 -40 16 -3 10
5 13 28 10 20 -2 35 2 37 10 3 7 -4 12 -19 12 -34 0 -48 18 -48 60 0 47 13 58
66 57 l44 0 0 -68z"/>
<path d="M12120 5960 c-9 -16 -8 -20 5 -20 8 0 15 9 15 20 0 11 -2 20 -5 20
-2 0 -9 -9 -15 -20z"/>
<path d="M9263 144 c-7 -18 8 -49 23 -49 5 0 10 15 12 33 2 24 -1 32 -13 32
-8 0 -18 -7 -22 -16z"/>
<path d="M3067 7504 c-4 -22 -6 -305 -6 -630 l0 -589 59 65 c34 37 60 74 60
87 0 12 5 34 10 49 21 55 31 164 17 182 -7 8 -5 12 7 12 9 0 16 5 16 10 0 6
-5 10 -11 10 -6 0 -9 8 -6 19 8 32 -10 48 -55 49 -57 2 -71 22 -52 68 8 19 10
34 5 34 -5 0 -7 20 -4 46 3 31 0 49 -8 54 -18 12 17 26 84 34 56 7 77 26 42
40 -8 3 -15 10 -15 16 0 6 5 8 11 4 18 -11 7 99 -11 113 -13 10 -13 12 3 18
21 9 22 32 2 71 -8 16 -16 45 -19 64 -5 42 -16 73 -29 81 -5 4 -10 30 -10 58
-1 50 -11 68 -20 34 -3 -11 -5 -7 -6 10 -1 31 -12 35 -32 11 -12 -14 -14 -14
-19 2 -5 13 -9 7 -13 -22z"/>
<path d="M12110 7520 c0 -5 11 -10 24 -10 14 0 28 5 31 10 4 6 -7 10 -24 10
-17 0 -31 -4 -31 -10z"/>
<path d="M4569 7464 c-9 -12 -14 -59 -17 -158 -2 -77 -4 -148 -4 -156 -1 -8 2
-31 5 -50 3 -19 2 -39 -2 -45 -12 -14 5 -55 24 -55 13 0 15 31 15 240 0 132
-2 240 -4 240 -2 0 -10 -7 -17 -16z"/>
<path d="M9180 7241 l0 -244 42 7 c49 8 44 5 53 34 5 19 2 25 -14 29 -21 5
-28 27 -13 37 5 3 8 24 7 48 -1 24 3 48 8 55 5 7 2 21 -7 36 -11 16 -14 34
-10 57 4 19 3 31 -2 28 -9 -6 -13 17 -14 72 0 14 -11 39 -25 55 l-24 30 -1
-244z"/>
<path d="M12080 7472 c0 -5 12 -14 27 -21 28 -13 51 -2 39 18 -8 13 -66 15
-66 3z"/>
<path d="M12160 7420 c-8 -6 -31 -10 -50 -10 -33 -1 -34 -1 -16 -15 26 -20 39
-19 67 4 25 20 24 37 -1 21z"/>
<path d="M7630 7310 c0 -5 5 -10 10 -10 6 0 10 5 10 10 0 6 -4 10 -10 10 -5 0
-10 -4 -10 -10z"/>
<path d="M10950 6749 c0 -24 4 -38 10 -34 6 3 10 22 10 41 0 19 -4 34 -10 34
-5 0 -10 -18 -10 -41z"/>
<path d="M4557 6733 c-9 -68 -8 -103 4 -103 8 0 8 -4 1 -12 -11 -15 -9 -189 3
-288 14 -112 23 -39 24 208 1 195 -1 232 -13 232 -9 0 -16 -14 -19 -37z"/>
<path d="M9181 6535 c0 -129 4 -235 9 -235 11 0 35 62 31 84 -1 10 1 16 6 13
5 -3 10 8 11 26 1 18 2 56 3 85 2 28 6 52 11 52 4 0 5 23 2 52 -5 41 -3 54 10
64 15 10 15 12 1 18 -18 7 -20 46 -2 46 26 1 -28 30 -55 30 l-29 0 2 -235z"/>
<path d="M7630 6734 c0 -8 5 -12 10 -9 6 4 8 11 5 16 -9 14 -15 11 -15 -7z"/>
<path d="M10150 6205 c0 -12 -7 -14 -27 -9 -46 11 -47 10 -57 -23 -6 -19 -16
-32 -25 -31 -9 1 -36 0 -61 -2 -97 -7 95 -18 330 -18 l235 -1 -39 34 c-26 23
-49 35 -68 35 -16 0 -38 5 -48 10 -10 6 -21 6 -24 1 -7 -10 -56 -2 -56 10 0
13 -54 11 -68 -3 -9 -9 -12 -9 -12 0 0 7 -16 12 -40 12 -29 0 -40 -4 -40 -15z"/>
<path d="M9719 6191 c-1 -3 -1 -10 0 -15 1 -4 -10 -6 -24 -2 -14 3 -36 9 -50
12 -16 4 -25 2 -25 -5 0 -7 -15 -11 -40 -9 -22 1 -40 6 -40 12 0 5 -8 2 -18
-8 -11 -9 -41 -18 -75 -20 -56 -4 -77 -11 -77 -25 0 -5 104 -9 230 -10 l230
-2 0 28 c0 15 -4 33 -8 40 -7 11 -101 15 -103 4z"/>
<path d="M3330 6180 c0 -5 -10 -10 -22 -10 -13 0 -36 -11 -53 -25 l-30 -24
243 -1 c255 0 253 0 236 44 -7 18 -54 22 -54 5 0 -7 -14 -8 -42 -3 -24 4 -71
6 -105 5 -36 -1 -63 2 -63 7 0 6 -16 10 -35 9 -21 -1 -30 -4 -22 -9 8 -5 4 -8
-10 -8 -13 0 -23 5 -23 10 0 6 -4 10 -10 10 -5 0 -10 -4 -10 -10z"/>
<path d="M3946 6144 c-3 -7 -1 -16 3 -19 12 -7 250 1 258 9 4 3 -9 6 -28 6
-19 0 -41 6 -48 13 -10 9 -15 9 -18 0 -2 -7 -10 -10 -16 -8 -7 2 -42 6 -79 9
-50 3 -68 1 -72 -10z"/>
<path d="M9848 6133 c7 -3 16 -2 19 1 4 3 -2 6 -13 5 -11 0 -14 -3 -6 -6z"/>
<path d="M8874 6108 c-3 -4 21 -7 53 -7 60 1 56 5 -10 11 -21 2 -40 0 -43 -4z"/>
<path d="M3026 5919 c-14 -17 -26 -40 -27 -52 0 -12 -2 -38 -5 -57 -3 -19 -6
-87 -8 -150 -1 -63 -6 -123 -11 -133 -8 -20 19 -57 42 -57 8 0 13 -13 14 -37
0 -21 1 -69 3 -106 2 -76 0 -83 -29 -89 -20 -3 -23 -17 -24 -123 -1 -89 -3
-111 -11 -119 -5 -5 -5 -16 0 -26 5 -10 9 -40 8 -68 -2 -43 3 -56 32 -95 19
-26 38 -47 42 -47 3 0 6 268 6 595 0 327 -1 595 -3 595 -2 0 -15 -14 -29 -31z"/>
<path d="M9162 5937 c-22 -27 -28 -85 -34 -347 l-3 -115 28 -3 27 -3 0 240 c0
133 -2 241 -4 241 -2 0 -8 -6 -14 -13z"/>
<path d="M4600 5890 c-9 -157 -8 -410 2 -416 16 -10 39 26 31 50 -6 20 -8 59
-13 256 -3 91 -17 169 -20 110z"/>
<path d="M7655 5701 c-3 -5 -1 -12 5 -16 5 -3 10 1 10 9 0 18 -6 21 -15 7z"/>
<path d="M7655 5640 c-3 -5 -1 -10 4 -10 6 0 11 5 11 10 0 6 -2 10 -4 10 -3 0
-8 -4 -11 -10z"/>
<path d="M7660 5535 c0 -38 2 -66 5 -63 8 8 8 118 1 125 -3 4 -6 -24 -6 -62z"/>
<path d="M9139 5236 c-13 -7 -22 -19 -20 -27 2 -8 2 -43 0 -79 -6 -132 1 -394
11 -404 6 -6 16 -3 30 9 19 17 20 30 20 261 0 134 -4 245 -8 248 -4 3 -19 -1
-33 -8z"/>
<path d="M4591 5043 c1 -109 6 -209 10 -223 4 -14 8 -20 9 -15 2 17 10 126 14
192 2 34 7 67 11 72 3 6 1 11 -6 11 -7 0 -8 4 -2 13 10 14 10 117 -1 135 -4 6
-14 12 -22 12 -13 0 -15 -27 -13 -197z"/>
<path d="M7659 5200 c-1 -44 -1 -217 0 -274 1 -16 4 -27 7 -23 4 3 7 66 8 139
1 74 6 139 10 146 4 7 0 22 -8 34 -16 22 -16 21 -17 -22z"/>
<path d="M7661 4874 c0 -11 3 -14 6 -6 3 7 2 16 -1 19 -3 4 -6 -2 -5 -13z"/>
<path d="M3041 4734 c0 -11 3 -14 6 -6 3 7 2 16 -1 19 -3 4 -6 -2 -5 -13z"/>
<path d="M8573 4636 c-31 -7 -43 -15 -43 -28 0 -17 15 -18 234 -18 226 0 266
3 266 20 0 14 -68 21 -237 24 -89 2 -165 6 -170 8 -4 2 -27 -1 -50 -6z"/>
<path d="M8249 4626 c-3 -3 -40 -6 -84 -7 -135 -4 -137 -15 -5 -22 120 -6 150
-1 136 22 -7 11 -38 15 -47 7z"/>
<path d="M7898 4603 c6 -2 18 -2 25 0 6 3 1 5 -13 5 -14 0 -19 -2 -12 -5z"/>
<path d="M7998 4603 c7 -3 16 -2 19 1 4 3 -2 6 -13 5 -11 0 -14 -3 -6 -6z"/>
<path d="M3249 4571 c21 -16 40 -18 200 -14 230 5 251 7 251 18 0 6 -93 11
-237 12 -233 3 -237 2 -214 -16z"/>
<path d="M3943 4578 c-2 -5 35 -8 83 -8 48 0 84 3 80 7 -9 9 -157 10 -163 1z"/>
<path d="M4227 4578 c-6 -4 17 -7 53 -7 66 1 65 5 -3 11 -20 2 -43 0 -50 -4z"/>
<path d="M9330 4575 c-7 -9 -10 -18 -6 -22 3 -4 97 -8 209 -10 111 -1 209 -4
217 -4 44 -5 80 2 80 16 0 8 6 15 13 15 8 0 7 4 -3 10 -9 6 -118 10 -256 10
-204 0 -244 -2 -254 -15z"/>
<path d="M4378 4573 c6 -2 18 -2 25 0 6 3 1 5 -13 5 -14 0 -19 -2 -12 -5z"/>
<path d="M12092 4458 c7 -20 48 -23 48 -4 0 11 -9 16 -26 16 -16 0 -24 -5 -22
-12z"/>
<path d="M12166 4441 c-4 -7 -5 -15 -2 -18 9 -9 19 4 14 18 -4 11 -6 11 -12 0z"/>
<path d="M4566 4377 c-13 -93 -25 -380 -18 -414 2 -14 11 -23 23 -23 18 0 19
11 19 239 0 230 -10 309 -24 198z"/>
<path d="M3061 3828 c0 -325 2 -602 5 -615 4 -12 10 -21 14 -18 5 3 40 -26 78
-65 l69 -70 241 0 242 0 0 27 c0 48 -25 63 -90 56 -38 -4 -60 -2 -64 6 -5 8
-16 6 -37 -5 -17 -8 -33 -13 -37 -10 -3 3 0 6 6 6 7 0 12 7 12 15 0 17 -29 10
-47 -13 -11 -14 -15 -14 -30 1 -20 17 -93 13 -105 -7 -10 -15 -30 -15 -49 1
-14 12 -19 11 -33 -3 -14 -13 -22 -15 -42 -6 -13 7 -24 16 -24 22 0 5 -7 10
-15 10 -8 0 -15 5 -15 11 0 6 6 9 14 6 12 -5 12 -1 0 22 -12 24 -12 33 1 65 8
20 20 36 25 36 6 0 10 5 10 12 0 6 7 19 16 29 12 13 13 22 5 38 -14 25 -14 54
-1 46 17 -11 40 15 39 44 -1 25 -2 25 -9 -4 -10 -43 -21 -12 -16 45 3 32 8 45
19 45 21 0 31 11 22 25 -6 9 -9 9 -15 0 -10 -16 -33 -2 -26 16 3 7 1 16 -4 19
-16 10 -11 45 5 45 8 0 15 4 15 9 0 16 -26 30 -70 37 -25 4 -50 12 -55 18 -7
7 -11 51 -10 111 l2 100 59 9 c69 10 71 11 54 31 -7 8 -9 23 -5 32 4 10 8 30
10 46 3 22 0 27 -16 27 -12 0 -19 5 -16 13 2 6 10 11 17 9 10 -2 10 1 -1 15
-8 10 -18 21 -24 25 -6 5 -6 8 1 8 6 0 12 11 12 25 0 19 -6 25 -21 25 -20 0
-20 1 -2 14 18 13 18 14 -3 44 -12 16 -22 38 -22 47 0 17 -69 114 -82 115 -4
0 -7 -266 -7 -592z"/>
<path d="M7628 4398 c-6 -55 -19 -271 -21 -373 -2 -76 -1 -80 21 -83 l23 -4
-2 236 c-1 130 -5 236 -10 236 -5 0 -10 -6 -11 -12z"/>
<path d="M12112 4394 c9 -9 21 -13 27 -9 16 10 3 25 -22 25 -20 0 -20 -1 -5
-16z"/>
<path d="M12170 4365 c-7 -9 -29 -15 -51 -15 -41 0 -52 -14 -20 -25 29 -9 70
5 82 27 13 25 6 34 -11 13z"/>
<path d="M6131 4304 c0 -11 3 -14 6 -6 3 7 2 16 -1 19 -3 4 -6 -2 -5 -13z"/>
<path d="M6129 4240 c-4 -78 -6 -286 -3 -292 2 -3 12 -4 22 -2 13 4 17 16 17
52 0 26 -3 52 -6 57 -3 6 -5 45 -5 88 1 42 -2 77 -7 77 -4 0 -6 4 -3 8 2 4 1
14 -5 22 -7 12 -9 9 -10 -10z"/>
<path d="M11228 4070 l-36 -39 31 -6 c18 -4 40 -9 51 -12 16 -5 17 -1 11 38
-4 24 -10 47 -14 51 -3 3 -23 -11 -43 -32z"/>
<path d="M9403 4079 c14 -8 22 -8 30 0 8 8 3 11 -18 11 -26 -1 -28 -2 -12 -11z"/>
<path d="M10397 4024 c-13 -13 -7 -26 8 -21 8 4 17 2 20 -3 10 -16 35 -12 35
5 0 8 -6 15 -14 15 -8 0 -21 2 -28 5 -8 3 -17 2 -21 -1z"/>
<path d="M10340 3974 c0 -10 7 -14 22 -12 32 5 35 28 4 28 -17 0 -26 -5 -26
-16z"/>
<path d="M10298 3953 c7 -3 16 -2 19 1 4 3 -2 6 -13 5 -11 0 -14 -3 -6 -6z"/>
<path d="M4544 3698 c-4 -6 -8 -64 -10 -127 -1 -64 -5 -135 -8 -158 -4 -24 -2
-43 3 -43 5 0 9 -6 8 -12 -2 -51 6 -81 28 -105 l24 -28 1 243 c0 233 -1 242
-19 242 -11 0 -23 -5 -27 -12z"/>
<path d="M6121 3480 c2 -172 6 -230 15 -230 13 0 24 31 24 73 0 15 4 27 8 27
4 0 8 17 9 38 1 20 4 53 7 72 4 28 4 30 -3 10 -7 -21 -9 -16 -9 25 -1 37 2 45
8 30 6 -14 9 -15 9 -4 1 8 -5 21 -11 27 -10 10 -10 17 1 34 9 14 10 23 3 26
-6 2 -8 20 -5 44 6 42 -4 58 -40 58 -17 0 -18 -13 -16 -230z"/>
<path d="M7605 3698 c-12 -38 -25 -459 -14 -452 9 5 4 -50 -6 -65 -6 -10 -3
-11 13 -2 52 28 52 25 52 287 0 239 0 244 -20 244 -11 0 -22 -6 -25 -12z"/>
<path d="M9560 3690 c0 -5 6 -10 14 -10 8 0 18 5 21 10 3 6 -3 10 -14 10 -12
0 -21 -4 -21 -10z"/>
<path d="M3248 3403 c7 -3 16 -2 19 1 4 3 -2 6 -13 5 -11 0 -14 -3 -6 -6z"/>
<path d="M3301 3144 c0 -11 3 -14 6 -6 3 7 2 16 -1 19 -3 4 -6 -2 -5 -13z"/>
<path d="M7632 3130 c0 -19 2 -27 5 -17 2 9 2 25 0 35 -3 9 -5 1 -5 -18z"/>
<path d="M3948 3134 c-5 -4 -8 -22 -8 -41 l0 -33 235 0 c129 0 235 4 235 8 0
15 -48 35 -66 28 -9 -3 -23 -1 -31 6 -11 9 -16 9 -24 -3 -5 -8 -9 -9 -9 -4 0
6 -21 11 -46 12 -26 2 -51 6 -58 11 -13 10 -161 8 -193 -2 -15 -5 -22 -2 -25
9 -2 9 -6 13 -10 9z"/>
<path d="M7220 3120 c0 -6 -35 -9 -87 -9 -132 1 -135 0 -131 -25 3 -21 6 -21
238 -23 211 -3 277 3 259 22 -3 3 -28 7 -55 10 -27 3 -67 9 -90 13 -22 5 -49
5 -60 2 -10 -4 -31 -1 -46 7 -16 8 -28 9 -28 3z"/>
<path d="M6694 3110 c-12 -4 -56 -7 -98 -5 -42 1 -79 -1 -82 -7 -3 -5 -10 -5
-17 0 -7 6 -46 4 -97 -3 -104 -15 -98 -14 -82 -24 7 -4 112 -9 233 -10 207 -2
219 -1 219 16 0 38 -31 51 -76 33z"/>
<path d="M3798 3073 c12 -2 30 -2 40 0 9 3 -1 5 -23 4 -22 0 -30 -2 -17 -4z"/>
<path d="M4770 3051 c0 -18 34 -20 253 -19 157 0 217 4 214 12 -5 14 -467 21
-467 7z"/>
<path d="M5474 3048 c-9 -14 14 -15 221 -12 260 3 247 2 240 15 -8 11 -454 9
-461 -3z"/>
<path d="M7800 3045 c-7 -9 -11 -18 -8 -20 2 -3 117 -6 254 -7 l249 -3 3 23 3
22 -244 0 c-207 0 -246 -2 -257 -15z"/>
<path d="M4590 2335 c0 -525 6 -773 18 -760 3 3 5 35 4 71 l-2 66 78 81 c42
45 79 84 82 87 51 50 62 70 50 85 -13 16 -7 45 10 45 5 0 10 -12 10 -26 0 -22
2 -25 15 -14 23 19 18 39 -11 50 -14 6 -28 19 -31 30 -3 11 -11 20 -18 20 -16
0 -25 23 -25 65 0 28 -4 33 -31 39 -17 3 -47 6 -65 6 -32 0 -34 2 -28 25 3 14
2 31 -4 38 -10 13 -22 134 -15 155 3 7 21 12 43 12 69 0 87 22 58 71 -10 17
-10 23 0 26 6 3 12 14 12 24 0 11 -4 18 -9 15 -13 -8 -21 47 -9 61 8 9 4 15
-13 21 -15 6 -18 11 -11 16 7 4 9 13 5 19 -11 18 -12 36 -2 42 4 3 -1 15 -11
25 -11 11 -20 32 -20 48 0 17 -15 44 -40 72 l-39 45 -1 -560z m193 -305 c3
-11 2 -20 -3 -20 -4 0 -10 9 -13 20 -3 11 -2 20 3 20 4 0 10 -9 13 -20z"/>
<path d="M6102 2877 c-29 -35 -36 -79 -47 -321 -3 -65 -7 -124 -8 -130 -1 -6
10 -12 24 -14 24 -3 25 -5 23 -60 -1 -31 -3 -83 -3 -114 -1 -51 -3 -57 -23
-60 -25 -3 -34 -40 -43 -188 -2 -41 -6 -97 -7 -125 -2 -27 0 -54 4 -60 4 -5
20 -26 35 -45 24 -30 28 -43 26 -90 -3 -81 -9 -111 -24 -121 -10 -6 -4 -9 17
-9 30 0 32 3 38 43 6 41 7 1307 1 1307 -1 0 -7 -6 -13 -13z"/>
<path d="M7900 2584 c0 -8 5 -12 10 -9 6 3 10 10 10 16 0 5 -4 9 -10 9 -5 0
-10 -7 -10 -16z"/>
<path d="M4780 2160 c0 -5 7 -7 15 -4 8 4 15 8 15 10 0 2 -7 4 -15 4 -8 0 -15
-4 -15 -10z"/>
<path d="M4780 2122 c0 -12 7 -25 15 -29 24 -9 25 0 5 27 l-20 25 0 -23z"/>
<path d="M5036 1802 c-8 -13 35 -21 60 -11 13 5 14 8 4 8 -8 1 -25 4 -36 7
-12 3 -24 1 -28 -4z"/>
<path d="M4889 1665 c-91 -91 -122 -115 -145 -116 -23 -1 -25 -3 -6 -6 12 -2
22 -8 22 -12 0 -5 63 -11 141 -14 81 -3 146 -10 152 -16 6 -6 19 -11 28 -11
23 0 70 -25 62 -33 -3 -4 -1 -7 5 -7 7 0 12 7 12 16 0 13 7 15 31 10 17 -3 41
-7 53 -7 15 -1 13 -3 -9 -9 l-30 -7 28 -7 c15 -5 27 -12 27 -17 0 -12 83 -12
96 0 5 5 50 11 99 14 50 3 80 3 68 0 -48 -10 -22 -34 43 -40 39 -3 45 0 61 27
18 32 28 37 38 20 3 -5 0 -10 -8 -10 -14 0 -27 -20 -27 -41 0 -5 25 -9 55 -9
48 0 55 2 55 20 0 24 28 27 37 4 3 -8 16 -19 28 -24 18 -7 24 -19 29 -61 4
-30 12 -59 18 -66 8 -9 0 -14 -30 -19 -30 -5 -42 -12 -46 -28 -10 -39 17 -116
40 -116 6 0 15 -20 18 -45 4 -25 11 -45 15 -45 5 0 63 11 131 25 68 14 127 25
131 25 5 0 9 -238 9 -530 l0 -530 765 0 765 0 0 530 c0 506 1 530 18 530 10 0
108 -18 217 -40 109 -22 202 -40 206 -40 4 0 6 25 5 55 -1 57 -13 75 -45 70
-9 -1 -10 0 -3 2 6 3 12 13 12 24 0 17 8 19 66 19 l67 0 -7 31 c-3 17 -6 38
-6 45 0 8 -10 14 -25 14 -15 0 -25 -6 -25 -14 0 -19 -27 -28 -66 -20 -31 6
-34 9 -34 41 0 24 -8 44 -27 64 -25 26 -34 29 -91 29 -55 0 -65 3 -69 20 -3
11 -11 20 -17 20 -6 0 -26 16 -45 35 -18 19 -36 35 -40 35 -4 0 -25 -18 -46
-41 l-40 -40 -5 78 -5 78 -759 0 -760 0 3 -67 c1 -37 -1 -72 -4 -78 -4 -6 -27
8 -57 35 -39 35 -58 45 -87 46 -20 0 -54 4 -76 8 l-40 9 35 1 c31 2 33 3 13
11 -34 14 -28 30 10 30 23 0 34 5 34 15 0 8 -5 15 -11 15 -7 0 -41 29 -76 65
l-64 65 17 30 18 30 -47 0 c-35 0 -54 6 -70 21 l-22 21 -7 -21 c-6 -21 -11
-21 -341 -21 -327 0 -334 0 -334 20 0 11 -3 20 -7 20 -5 0 -60 -52 -124 -115z
m1439 -175 c23 -19 39 -21 166 -19 78 0 146 0 151 -1 6 -1 34 -2 63 -1 43 1
55 5 59 19 4 16 15 18 91 17 137 -3 139 -3 145 -25 5 -19 13 -21 74 -20 37 1
126 1 198 1 113 -1 133 1 155 18 19 14 41 18 84 17 77 -2 96 -25 93 -113 -2
-61 -3 -64 -57 -118 -47 -47 -59 -55 -82 -50 -63 14 -129 -51 -114 -112 15
-64 14 -72 -18 -108 -22 -25 -40 -36 -54 -33 -12 2 -33 -8 -51 -26 l-31 -30 0
109 0 109 31 25 c22 19 32 38 36 66 4 35 1 45 -25 73 -23 25 -38 32 -67 32
-83 0 -127 -105 -69 -164 l27 -26 -48 -117 c-27 -65 -57 -138 -68 -163 l-20
-45 -38 187 -38 187 29 30 c41 41 41 91 1 132 -40 40 -88 40 -130 0 -43 -40
-43 -88 0 -130 l30 -31 -38 -191 -38 -191 -69 176 -69 176 27 26 c30 31 35 86
11 121 -38 54 -131 50 -160 -8 -24 -46 -19 -78 20 -115 l35 -33 0 -113 0 -113
-79 79 c-74 74 -79 81 -74 113 11 64 -47 121 -111 109 -28 -5 -37 -1 -83 46
-31 32 -58 71 -67 98 -14 41 -14 49 1 92 15 43 20 47 52 51 78 8 94 6 119 -13z
m-895 -27 c-13 -2 -35 -2 -50 0 -16 2 -5 4 22 4 28 0 40 -2 28 -4z m467 -37
c0 -2 -7 -9 -15 -16 -12 -10 -15 -10 -15 4 0 9 7 16 15 16 8 0 15 -2 15 -4z
m57 -2 c-3 -3 -12 -4 -19 -1 -8 3 -5 6 6 6 11 1 17 -2 13 -5z m957 -120 c21
-21 20 -37 -3 -58 -40 -36 -91 15 -55 55 21 23 37 24 58 3z m-280 -46 c15 -24
-3 -52 -37 -56 -33 -4 -53 28 -37 59 14 25 58 23 74 -3z m564 -4 c27 -19 28
-36 3 -58 -40 -36 -91 15 -55 55 21 23 24 23 52 3z m-839 -108 c19 -23 -3 -66
-34 -66 -30 0 -48 34 -33 63 10 20 51 23 67 3z m1116 -26 c0 -31 -3 -35 -28
-38 -21 -3 -29 2 -36 20 -13 34 4 60 37 56 24 -3 27 -7 27 -38z m-555 -216
c16 -82 32 -159 35 -171 5 -22 3 -23 -70 -23 -73 0 -75 1 -70 23 8 32 65 319
65 325 0 3 2 3 5 0 3 -2 18 -72 35 -154z m1135 146 c3 -5 2 -10 -4 -10 -5 0
-13 5 -16 10 -3 6 -2 10 4 10 5 0 13 -4 16 -10z m-1360 -194 c30 -77 54 -141
52 -142 -1 -1 -30 -6 -65 -10 l-62 -7 1 169 c0 109 4 162 9 149 5 -11 34 -83
65 -159z m452 -153 c-3 -2 -32 0 -65 4 l-60 8 61 151 62 152 3 -156 c1 -85 1
-157 -1 -159z m-612 27 l24 -38 -55 -7 c-31 -4 -57 -5 -58 -3 -4 5 -36 205
-36 225 0 16 29 -25 125 -177z m807 60 l-18 -105 -49 3 c-28 2 -52 5 -54 7 -2
3 27 54 65 114 38 61 70 105 71 98 2 -7 -5 -59 -15 -117z m-93 63 c-50 -83
-49 -83 -49 -20 l0 57 36 0 36 0 -23 -37z m270 27 l46 0 0 -113 -1 -112 -92
-3 c-70 -2 -92 0 -92 10 0 7 8 62 17 121 l17 109 29 -6 c16 -3 50 -6 76 -6z
m-1146 -100 c24 -140 27 -130 -43 -130 -59 0 -61 1 -66 30 -4 17 -11 30 -16
30 -5 0 -8 6 -5 13 2 6 10 12 17 12 7 0 15 6 18 14 3 10 0 12 -12 8 -13 -5
-15 -2 -10 17 3 13 1 27 -5 30 -14 9 -14 46 0 46 8 0 8 5 -1 15 -11 13 -5 15
47 15 l60 0 16 -100z m197 48 l0 -52 -30 47 c-16 26 -30 50 -30 52 0 3 14 5
30 5 29 0 30 -1 30 -52z m653 -188 c48 -7 87 -16 87 -20 0 -4 -15 -23 -32 -44
l-33 -36 -85 10 c-108 13 -428 13 -545 0 l-90 -10 -32 37 c-18 20 -33 40 -33
44 0 7 53 16 180 30 103 10 476 3 583 -11z m-78 -139 l60 -6 3 -37 3 -38 -48
8 c-62 9 -459 9 -540 0 l-63 -8 0 40 0 39 53 4 c90 6 469 5 532 -2z m-20 -121
c121 -14 125 -16 125 -51 0 -16 6 -38 12 -49 8 -13 9 -23 3 -29 -27 -26 -403
-39 -620 -21 -136 12 -155 16 -155 35 0 31 33 95 52 101 72 22 429 31 583 14z
m-821 -212 c26 -37 20 -48 -24 -48 -22 0 -40 -4 -40 -9 0 -13 34 -23 54 -15
11 4 16 1 16 -10 0 -20 -69 -23 -88 -4 -17 17 -15 74 4 92 22 23 60 20 78 -6z"/>
<path d="M6245 150 c-3 -5 3 -10 14 -10 12 0 21 5 21 10 0 6 -6 10 -14 10 -8
0 -18 -4 -21 -10z"/>
<path d="M5062 1460 c0 -14 2 -19 5 -12 2 6 2 18 0 25 -3 6 -5 1 -5 -13z"/>
<path d="M12102 1388 c-7 -7 -8 -16 -3 -22 5 -6 11 -20 14 -31 2 -11 5 -1 6
23 1 46 0 47 -17 30z"/>
<path d="M12120 1280 c0 -5 6 -10 14 -10 8 0 18 5 21 10 3 6 -3 10 -14 10 -12
0 -21 -4 -21 -10z"/>
<path d="M7785 190 c4 -6 11 -8 16 -5 14 9 11 15 -7 15 -8 0 -12 -5 -9 -10z"/>
<path d="M1650 132 c0 -25 3 -29 21 -25 25 7 22 46 -3 51 -14 3 -18 -3 -18
-26z"/>
<path d="M4707 153 c-4 -3 -7 -15 -7 -26 0 -13 5 -17 15 -13 8 3 15 0 16 -7 0
-7 4 -3 8 8 14 33 -10 61 -32 38z"/>
<path d="M7736 128 c11 -68 15 -78 29 -78 7 0 17 4 20 10 3 5 -3 10 -14 10
-18 0 -21 6 -21 45 0 25 -4 45 -10 45 -5 0 -7 -14 -4 -32z"/>
<path d="M7780 140 c0 -24 15 -27 24 -4 9 22 8 24 -9 24 -8 0 -15 -9 -15 -20z"/>
<path d="M10817 153 c-4 -3 -7 -24 -7 -45 0 -32 -3 -38 -21 -38 -11 0 -17 -4
-14 -10 13 -20 36 -9 42 20 3 17 9 30 13 30 4 0 10 -13 14 -30 5 -29 28 -40
41 -20 3 6 -3 10 -14 10 -18 0 -21 6 -21 45 0 43 -14 58 -33 38z"/>
<path d="M10882 100 c0 -14 2 -19 5 -12 2 6 2 18 0 25 -3 6 -5 1 -5 -13z"/>
<path d="M1712 89 c-10 -16 -20 -20 -40 -16 -29 5 -72 -6 -56 -15 5 -3 23 -9
41 -12 25 -6 36 -3 52 13 12 12 21 28 21 36 0 20 -3 19 -18 -6z"/>
<path d="M4660 99 c0 -32 26 -52 65 -51 21 1 43 6 49 12 11 11 -5 14 -55 10
-18 -1 -32 6 -43 22 -11 15 -16 18 -16 7z"/>
</g>
</svg>
